<?xml version="1.0" encoding="UTF-8"?>
<svg id="_レイヤー_2" data-name="レイヤー_2" xmlns="http://www.w3.org/2000/svg" viewBox="0 0 565.53 696.92">
  <defs>
    <style>
      .cls-1, .cls-2, .cls-3, .cls-4 {
        fill: #7c4633;
      }

      .cls-5, .cls-2, .cls-6, .cls-3, .cls-4 {
        stroke: #7c4633;
      }

      .cls-5, .cls-2, .cls-6, .cls-3, .cls-4, .cls-7 {
        stroke-miterlimit: 10;
      }

      .cls-5, .cls-6 {
        fill: none;
        stroke-width: 2.83px;
      }

      .cls-6 {
        stroke-dasharray: 5.67;
      }

      .cls-3 {
        stroke-width: 2.13px;
      }

      .cls-4 {
        stroke-width: 2.13px;
      }

      .cls-7 {
        fill: #fffdfd;
        stroke: #fffdfd;
      }
    </style>
  </defs>
  <g id="_絵図" data-name="絵図">
    <g>
      <path class="cls-3" d="M403.17,50.99c-.9,9.57-8.28,15.62-11.99,18.65-18.88,15.46-46.35,9.36-51.97,7.99-7.19,4.09-24.88,12.81-47.97,10.66-12.07-1.12-21.64-4.85-27.98-7.99-15.56,7.69-33.43,6.08-45.3-4-14.1-11.96-20.58-36.6-7.99-49.3,8.39-8.47,23.43-10.15,37.31-4,1.32-3.22,5.31-11.69,14.66-17.32,12.47-7.51,25.86-3.91,30.65-2.66,6.63,1.73,11.59,4.59,14.66,6.66,3.7-2.17,8.63-4.36,14.66-5.33,20.79-3.34,37.03,10.69,39.97,13.32,3.33-.04,23.22,0,34.64,14.66,2.13,2.74,7.51,9.64,6.66,18.65Z"/>
      <g>
        <path class="cls-7" d="M244.42,55.64v-18h2.06c2.8,4.32,9.38,14.37,10.52,16.33h.03c-.15-2.6-.13-5.24-.13-8.18v-8.15h1.41v18h-1.9c-2.67-4.17-9.36-14.63-10.64-16.61h-.03c.13,2.37.1,4.99.1,8.25v8.36h-1.41Z"/>
        <path class="cls-7" d="M271.76,53.19c0,1.13.1,2.03.18,2.44h-1.23c-.1-.31-.18-.88-.23-1.98-.44.95-1.57,2.29-4.22,2.29-2.98,0-4.27-1.93-4.27-3.86,0-2.83,2.19-4.11,6.04-4.11h2.44v-1.31c0-1.29-.39-3.01-3.32-3.01-2.6,0-2.98,1.36-3.27,2.42h-1.29c.15-1.41,1.03-3.6,4.58-3.6,2.93,0,4.58,1.23,4.58,4.06v6.66ZM270.5,49.08h-2.52c-2.85,0-4.63.75-4.63,2.96,0,1.62,1.16,2.72,2.96,2.72,3.68,0,4.19-2.44,4.19-5.22v-.46Z"/>
        <path class="cls-7" d="M276.03,42.78c1.9,6.63,3.01,10.44,3.21,11.57h.03c.21-1.03,1.49-5.07,3.5-11.57h1.39c2.39,7.94,3.11,10.23,3.34,11.23h.03c.36-1.41.95-3.34,3.32-11.23h1.36l-4.06,12.86h-1.41c-1.39-4.55-3.06-10.13-3.32-11.31h-.03c-.26,1.26-1.72,5.86-3.39,11.31h-1.54l-3.78-12.86h1.36Z"/>
        <path class="cls-7" d="M304.91,54.76c0,4.11-1.83,6.27-5.55,6.27-3.34,0-4.73-1.88-5.04-3.83h1.31c.46,1.77,1.93,2.62,3.78,2.62,3.34,0,4.27-2.16,4.27-5.42v-1.34c-.69,1.67-1.95,2.57-4.29,2.57-3.01,0-5.32-2.44-5.32-6.43,0-4.32,2.47-6.74,5.5-6.74,2.62,0,3.75,1.23,4.11,2.26.03-.75.05-1.64.08-1.95h1.21c0,.46-.05,2.49-.05,3.73v8.25ZM295.42,49.16c0,3.06,1.62,5.27,4.09,5.27,3.21,0,4.19-2.13,4.19-5.48s-1.03-5.27-4.11-5.27-4.17,2.55-4.17,5.48Z"/>
        <path class="cls-7" d="M309.13,46.28c0-2.16-.03-3.09-.03-3.5h1.26c.03.41.05,1.23.05,2.88.75-1.93,2.39-3.09,4.47-3.19v1.39c-2.67.18-4.47,2.03-4.47,5.09v6.69h-1.29v-9.36Z"/>
        <path class="cls-7" d="M326.28,53.19c0,1.13.1,2.03.18,2.44h-1.23c-.1-.31-.18-.88-.23-1.98-.44.95-1.57,2.29-4.22,2.29-2.98,0-4.27-1.93-4.27-3.86,0-2.83,2.19-4.11,6.04-4.11h2.44v-1.31c0-1.29-.39-3.01-3.32-3.01-2.6,0-2.98,1.36-3.27,2.42h-1.29c.15-1.41,1.03-3.6,4.58-3.6,2.93,0,4.58,1.23,4.58,4.06v6.66ZM325.02,49.08h-2.52c-2.85,0-4.63.75-4.63,2.96,0,1.62,1.16,2.72,2.96,2.72,3.68,0,4.19-2.44,4.19-5.22v-.46Z"/>
        <path class="cls-7" d="M331.81,53.73v7.04h-1.29v-14.84c0-1.05,0-2.19-.03-3.16h1.26c.05.49.05,1.26.05,2.31.8-1.54,2.21-2.62,4.53-2.62,3.03,0,5.14,2.54,5.14,6.4,0,4.63-2.47,7.07-5.58,7.07-2.26,0-3.44-1-4.09-2.21ZM340.12,48.93c0-2.98-1.44-5.22-3.99-5.22-3.11,0-4.4,1.95-4.4,5.45s1,5.58,4.22,5.58c2.67,0,4.17-2.26,4.17-5.81Z"/>
        <path class="cls-7" d="M345.98,36.69v8.25c.72-1.34,1.98-2.47,4.24-2.47,1.83,0,4.35.93,4.35,4.99v8.18h-1.29v-7.92c0-2.54-1.16-3.98-3.29-3.98-2.55,0-4.01,1.57-4.01,4.73v7.17h-1.29v-18.95h1.29Z"/>
      </g>
      <path class="cls-2" d="M442.79,558.87c24.81,21.46,31.12,53.24,32,58,1.91,10.35,6.78,37.38-6,57-8.8,13.52-27.13,25.28-144,22-120.54-3.38-136.02-16.87-144-27-19.31-24.52-22.56-64.76-6-91,19.3-30.58,62.87-32.39,150-36,84.9-3.52,105.47,6.16,118,17Z"/>
      <g>
        <path class="cls-7" d="M288.6,623.33l-1.95,5.3h-1.21l5.63-15.34h1.4l5.87,15.34h-1.29l-1.99-5.3h-6.46ZM294.67,622.23c-1.71-4.56-2.59-6.75-2.89-7.78h-.02c-.37,1.16-1.36,3.88-2.74,7.78h5.65Z"/>
        <path class="cls-7" d="M301.81,627.01v6h-1.1v-12.64c0-.9,0-1.86-.02-2.7h1.07c.04.42.04,1.07.04,1.97.68-1.32,1.88-2.24,3.86-2.24,2.59,0,4.38,2.17,4.38,5.46,0,3.94-2.1,6.03-4.75,6.03-1.93,0-2.94-.85-3.48-1.88ZM308.89,622.91c0-2.54-1.23-4.45-3.4-4.45-2.65,0-3.75,1.67-3.75,4.65s.85,4.75,3.59,4.75c2.28,0,3.55-1.93,3.55-4.95Z"/>
        <path class="cls-7" d="M313.88,627.01v6h-1.1v-12.64c0-.9,0-1.86-.02-2.7h1.07c.04.42.04,1.07.04,1.97.68-1.32,1.88-2.24,3.86-2.24,2.59,0,4.38,2.17,4.38,5.46,0,3.94-2.1,6.03-4.75,6.03-1.93,0-2.94-.85-3.48-1.88ZM320.96,622.91c0-2.54-1.23-4.45-3.4-4.45-2.65,0-3.75,1.67-3.75,4.65s.85,4.75,3.59,4.75c2.28,0,3.55-1.93,3.55-4.95Z"/>
        <path class="cls-7" d="M332.37,626.55c0,.96.09,1.73.15,2.08h-1.05c-.09-.26-.15-.75-.2-1.69-.37.81-1.34,1.95-3.59,1.95-2.54,0-3.64-1.64-3.64-3.29,0-2.41,1.86-3.51,5.15-3.51h2.08v-1.12c0-1.1-.33-2.56-2.83-2.56-2.21,0-2.54,1.16-2.78,2.06h-1.1c.13-1.21.88-3.07,3.9-3.07,2.5,0,3.9,1.05,3.9,3.46v5.67ZM331.3,623.04h-2.15c-2.43,0-3.94.64-3.94,2.52,0,1.38.99,2.32,2.52,2.32,3.13,0,3.57-2.08,3.57-4.45v-.39Z"/>
        <path class="cls-7" d="M335.99,620.66c0-1.84-.02-2.63-.02-2.98h1.07c.02.35.04,1.05.04,2.45.64-1.64,2.04-2.63,3.81-2.72v1.18c-2.28.15-3.81,1.73-3.81,4.34v5.7h-1.1v-7.98Z"/>
        <path class="cls-7" d="M343.33,623.28c.02,2.83,1.45,4.58,3.55,4.58s2.76-1.16,3.16-2.06h1.12c-.46,1.45-1.62,3.09-4.32,3.09-3.33,0-4.62-2.87-4.62-5.65,0-3.13,1.56-5.83,4.75-5.83,3.37,0,4.45,2.91,4.45,4.97,0,.31,0,.61-.02.9h-8.06ZM350.27,622.32c-.02-2.17-1.21-3.88-3.35-3.88-2.26,0-3.29,1.58-3.53,3.88h6.88Z"/>
        <path class="cls-7" d="M354.09,628.63v-16.15h1.1v16.15h-1.1Z"/>
        <path class="cls-7" d="M365.57,627.01v6h-1.1v-12.64c0-.9,0-1.86-.02-2.7h1.07c.04.42.04,1.07.04,1.97.68-1.32,1.88-2.24,3.86-2.24,2.59,0,4.38,2.17,4.38,5.46,0,3.94-2.1,6.03-4.75,6.03-1.93,0-2.94-.85-3.48-1.88ZM372.64,622.91c0-2.54-1.23-4.45-3.4-4.45-2.65,0-3.75,1.67-3.75,4.65s.85,4.75,3.59,4.75c2.28,0,3.55-1.93,3.55-4.95Z"/>
        <path class="cls-7" d="M376.54,620.66c0-1.84-.02-2.63-.02-2.98h1.07c.02.35.04,1.05.04,2.45.64-1.64,2.04-2.63,3.81-2.72v1.18c-2.28.15-3.81,1.73-3.81,4.34v5.7h-1.1v-7.98Z"/>
        <path class="cls-7" d="M392.52,623.13c0,3.05-1.69,5.76-4.95,5.76-2.96,0-4.8-2.43-4.8-5.74,0-3.13,1.73-5.74,4.91-5.74,2.91,0,4.84,2.28,4.84,5.72ZM383.93,623.15c0,2.61,1.4,4.71,3.73,4.71s3.7-1.95,3.7-4.71c0-2.59-1.31-4.71-3.75-4.71s-3.68,2.08-3.68,4.71Z"/>
        <path class="cls-7" d="M403.69,612.48v12.99c0,1.05,0,2.06.02,3.16h-1.05c-.04-.26-.07-1.29-.07-1.84-.55,1.34-1.77,2.1-3.68,2.1-2.85,0-4.56-2.32-4.56-5.61s1.86-5.87,4.84-5.87c2.19,0,3.07.94,3.4,1.64v-6.57h1.1ZM395.52,623.24c0,3,1.56,4.62,3.44,4.62,2.89,0,3.68-1.99,3.68-4.97,0-2.83-.68-4.45-3.48-4.45-2.17,0-3.64,1.73-3.64,4.8Z"/>
        <path class="cls-7" d="M415.48,625.43c0,1.07.02,2.78.02,3.2h-1.05c-.04-.29-.07-1.01-.07-1.91-.46,1.29-1.58,2.17-3.53,2.17-1.58,0-3.59-.61-3.59-3.97v-7.25h1.07v6.99c0,1.6.5,3.16,2.67,3.16,2.45,0,3.37-1.38,3.37-4.51v-5.63h1.1v7.76Z"/>
        <path class="cls-7" d="M427.13,625.41c-.53,1.93-1.8,3.48-4.25,3.48-2.74,0-4.69-2.04-4.69-5.7,0-3,1.6-5.78,4.82-5.78,2.78,0,3.92,1.97,4.12,3.51h-1.12c-.33-1.27-1.16-2.48-3.02-2.48-2.32,0-3.64,1.97-3.64,4.71s1.23,4.71,3.53,4.71c1.6,0,2.56-.81,3.13-2.45h1.12Z"/>
        <path class="cls-7" d="M428.03,617.68h2.04v-3.42h1.1v3.42h2.61v1.03h-2.61v7.12c0,1.23.26,1.93,1.31,1.93.33,0,.79-.02,1.14-.13v.96c-.37.15-.9.2-1.36.2-1.4,0-2.19-.7-2.19-2.45v-7.62h-2.04v-1.03Z"/>
        <path class="cls-7" d="M436.01,625.61c.37,1.42,1.38,2.28,3.11,2.28,1.95,0,2.74-.9,2.74-2.12s-.53-1.86-2.98-2.45c-2.83-.68-3.53-1.53-3.53-2.98s1.14-2.91,3.62-2.91,3.66,1.51,3.83,3.07h-1.1c-.2-.92-.92-2.06-2.78-2.06s-2.45.94-2.45,1.82c0,1.01.53,1.51,2.7,2.04,3.09.75,3.86,1.75,3.86,3.4,0,1.99-1.62,3.22-3.92,3.22-2.5,0-3.9-1.31-4.21-3.29h1.12Z"/>
      </g>
      <g>
        <path class="cls-4" d="M350.86,336.92c3.69,0,6.44,1,8.25,3.01,1.81,2.01,2.71,4.72,2.71,8.13,0,3.85-.96,6.8-2.87,8.88s-4.67,3.11-8.25,3.11h-4.78v-23.12h4.94ZM348.43,338.84v19.28h1.87c2.76,0,4.92-.85,6.48-2.56,1.55-1.71,2.33-4.23,2.33-7.56,0-2.92-.73-5.18-2.19-6.77-1.46-1.59-3.65-2.39-6.56-2.39h-1.93Z"/>
        <path class="cls-4" d="M378.79,357.19c-.7.92-1.55,1.67-2.55,2.25-1,.58-2.3.86-3.92.86-2.09,0-3.76-.74-5.03-2.22-1.27-1.48-1.9-3.57-1.9-6.26,0-2.35.58-4.27,1.73-5.75,1.15-1.48,2.84-2.22,5.06-2.22,1.88,0,3.36.52,4.46,1.55,1.09,1.03,1.71,2.47,1.84,4.32.06.7.07,1.43.04,2.2h-10.68c0,1.76.4,3.27,1.21,4.54.81,1.26,1.91,1.9,3.3,1.9,1.01,0,1.9-.21,2.66-.63s1.46-1.05,2.1-1.89l1.68,1.36ZM372.15,345.69c-1.39,0-2.43.47-3.14,1.42-.71.95-1.09,2.02-1.14,3.22h8.28c-.04-1.27-.35-2.36-.94-3.28-.59-.92-1.61-1.37-3.05-1.37Z"/>
        <path class="cls-4" d="M383.03,356.19c.67.73,1.36,1.29,2.07,1.7.71.4,1.6.61,2.67.61s1.97-.23,2.67-.69c.7-.46,1.05-1.08,1.05-1.88,0-.55-.18-1.03-.53-1.42s-1.07-.79-2.14-1.17c-.4-.14-1.2-.41-2.38-.81-1.11-.29-2.15-.8-3.13-1.5s-1.46-1.71-1.46-3.01.53-2.24,1.58-3c1.05-.76,2.41-1.14,4.09-1.14.59,0,1.14.03,1.65.1.51.06.98.17,1.43.32.45.15.87.34,1.27.58.4.24.78.53,1.16.88l-1.34,1.61c-.67-.58-1.32-1-1.96-1.27-.63-.26-1.36-.4-2.18-.4-1,0-1.83.19-2.49.56-.65.37-.98.92-.98,1.64s.3,1.24.92,1.64c.61.41,1.33.74,2.17.98.44.14.88.28,1.31.43.43.15.87.29,1.31.43,1.4.5,2.4,1.09,3.01,1.77s.92,1.57.92,2.67c0,1.38-.57,2.47-1.7,3.29-1.13.82-2.53,1.22-4.19,1.22-1.3,0-2.45-.17-3.44-.49-1-.33-1.96-.98-2.9-1.94l1.55-1.68Z"/>
        <path class="cls-4" d="M397.32,338.94c0-.35.13-.68.38-.97.26-.29.59-.44,1.02-.44s.75.15,1,.44.38.62.38.97c0,.4-.14.74-.41,1.01-.28.27-.6.41-.96.41s-.7-.14-.98-.41-.42-.61-.42-1.01ZM397.56,344.11h2.33v15.93h-2.33v-15.93Z"/>
        <path class="cls-4" d="M417.79,346.04c-.39,0-.76,0-1.09.06-.33.05-.66.12-.99.22.25.37.46.8.63,1.28.17.48.26,1.04.26,1.67,0,.96-.17,1.8-.5,2.5-.33.7-.78,1.28-1.34,1.74-.56.46-1.21.8-1.93,1.02-.73.22-1.49.33-2.27.33-.67,0-1.36-.08-2.08-.25-.16.02-.36.07-.6.16-.25.09-.48.21-.72.35-.23.15-.43.32-.6.51-.17.19-.25.4-.25.63,0,.26.17.46.52.61.34.15.8.27,1.36.38.56.1,1.55.25,2.98.45,1.5.25,2.61.47,3.33.67.71.2,1.35.47,1.91.8.56.33,1.01.75,1.36,1.23.34.49.52,1.08.52,1.79s-.13,1.26-.38,1.76c-.26.49-.6.91-1.03,1.26-.43.35-.92.63-1.48.86-.56.22-1.15.4-1.77.52s-1.25.21-1.88.26c-.63.04-1.24.07-1.81.07-.91,0-1.73-.08-2.49-.24-.75-.16-1.4-.4-1.94-.73-.54-.33-.96-.75-1.27-1.25-.3-.51-.46-1.11-.46-1.81,0-.37.07-.75.2-1.11.13-.37.31-.72.55-1.05.23-.33.5-.64.8-.93.3-.29.62-.54.95-.77-.27-.13-.53-.26-.78-.41-.26-.14-.48-.3-.69-.49-.2-.18-.37-.39-.49-.63-.13-.24-.19-.52-.19-.85,0-.35.11-.68.32-.97s.47-.56.78-.8c.31-.24.64-.43.98-.59s.65-.27.92-.34c-.83-.47-1.45-1.07-1.87-1.81-.42-.73-.63-1.65-.63-2.75,0-.9.18-1.69.54-2.38.36-.69.83-1.27,1.41-1.73.58-.46,1.24-.81,1.99-1.06.75-.24,1.51-.36,2.29-.36.68,0,1.36.09,2.04.28.68.19,1.31.47,1.9.84.77-.29,1.51-.5,2.24-.62.72-.12,1.41-.18,2.06-.18l-.27,1.89-.99-.03ZM407.33,359.39c-.44.48-.78.96-1.03,1.45-.24.48-.36.95-.36,1.4,0,.6.13,1.09.38,1.48.26.39.59.7.99.92.4.23.86.38,1.36.47.5.09,1,.13,1.5.13.28,0,.61-.02,1-.05.39-.03.79-.09,1.21-.17.42-.08.83-.18,1.24-.32.41-.13.77-.3,1.1-.49.32-.2.59-.43.79-.7s.3-.58.3-.94-.11-.65-.32-.92-.49-.51-.84-.71c-.35-.21-.76-.39-1.24-.56-.48-.17-1.29-.36-2.44-.58-.77-.12-1.36-.2-1.79-.24-.43-.04-.8-.08-1.13-.1s-.57-.05-.72-.07ZM410.76,353.36c.61,0,1.13-.1,1.56-.3.43-.2.78-.49,1.06-.86.28-.37.47-.82.6-1.34.12-.52.18-1.1.18-1.74,0-.48-.07-.95-.21-1.39s-.35-.84-.63-1.17-.64-.6-1.07-.8c-.43-.2-.94-.3-1.53-.3-.72,0-1.31.12-1.79.35s-.85.53-1.14.91-.49.8-.6,1.27c-.12.47-.18.95-.18,1.43s.08.97.23,1.45c.15.47.38.9.69,1.27.31.37.7.68,1.17.91s1.02.35,1.66.35Z"/>
        <path class="cls-4" d="M421.42,346.16c0-.64-.04-1.32-.13-2.05h2.17c.09.43.15.94.18,1.53.7-.51,1.5-.94,2.4-1.28.9-.34,1.86-.51,2.87-.51,1.66,0,2.93.44,3.81,1.31.88.88,1.32,2.12,1.32,3.73v11.14h-2.33v-10.76c0-1.08-.24-1.94-.72-2.57-.48-.63-1.24-.95-2.28-.95-.84,0-1.7.14-2.6.41-.9.28-1.68.63-2.36,1.06v12.81h-2.33v-13.88Z"/>
        <path class="cls-4" d="M347.96,370.55c.07.42.13.81.18,1.15,1.02-.5,1.89-.86,2.61-1.08.72-.22,1.44-.33,2.17-.33,2.02,0,3.57.73,4.65,2.2,1.09,1.47,1.63,3.45,1.63,5.95,0,2.36-.6,4.33-1.79,5.92s-2.78,2.38-4.74,2.38c-1.1,0-2.01-.12-2.74-.38-.72-.25-1.3-.55-1.73-.89v7.69h-2.33v-20.27c-.02-.67-.06-1.45-.13-2.35h2.23ZM352.38,372.29c-.73,0-1.42.08-2.08.25-.66.17-1.36.46-2.11.87v10.02c.4.38.96.7,1.68.94.72.25,1.55.37,2.51.37,1.46,0,2.55-.59,3.28-1.79.73-1.19,1.09-2.72,1.09-4.59s-.39-3.46-1.17-4.51-1.84-1.57-3.2-1.57Z"/>
        <path class="cls-4" d="M365.16,370.55c.07.26.12.6.15,1.03.03.43.05.99.05,1.67.76-.91,1.65-1.62,2.66-2.15s2.08-.8,3.18-.8c.13,0,.26,0,.41.03.14.02.25.04.32.06l-.5,2.43c-.29-.08-.67-.12-1.12-.12-1.31,0-2.4.29-3.26.88-.87.59-1.42,1.17-1.67,1.74v11.15h-2.33v-13.74c-.02-1.27-.05-2-.09-2.2h2.2Z"/>
        <path class="cls-4" d="M381.29,386.75c-2.5,0-4.39-.77-5.67-2.32s-1.92-3.59-1.92-6.14c0-2.28.68-4.19,2.05-5.71s3.19-2.29,5.46-2.29,4.11.79,5.38,2.38c1.26,1.58,1.9,3.56,1.9,5.92s-.66,4.16-1.99,5.76c-1.33,1.6-3.06,2.4-5.21,2.4ZM381.18,384.87c.82,0,1.53-.19,2.14-.58s1.22-1.08,1.82-2.08c.6-1,.91-2.37.91-4.09,0-1.5-.42-2.88-1.25-4.11-.83-1.23-2.05-1.85-3.65-1.85s-2.84.59-3.71,1.77-1.31,2.72-1.31,4.63c0,1.63.31,2.9.94,3.81s1.25,1.55,1.89,1.93c.63.38,1.37.57,2.22.57Z"/>
        <path class="cls-4" d="M394.51,370.55c.07.42.13.81.18,1.15,1.02-.5,1.89-.86,2.61-1.08.72-.22,1.44-.33,2.17-.33,2.02,0,3.57.73,4.65,2.2,1.09,1.47,1.63,3.45,1.63,5.95,0,2.36-.6,4.33-1.79,5.92s-2.78,2.38-4.74,2.38c-1.1,0-2.01-.12-2.74-.38-.72-.25-1.3-.55-1.73-.89v7.69h-2.33v-20.27c-.02-.67-.06-1.45-.13-2.35h2.23ZM398.93,372.29c-.73,0-1.42.08-2.08.25-.66.17-1.36.46-2.11.87v10.02c.4.38.96.7,1.68.94.72.25,1.55.37,2.51.37,1.46,0,2.55-.59,3.28-1.79.73-1.19,1.09-2.72,1.09-4.59s-.39-3.46-1.17-4.51-1.84-1.57-3.2-1.57Z"/>
        <path class="cls-4" d="M416.76,386.75c-2.5,0-4.39-.77-5.67-2.32s-1.92-3.59-1.92-6.14c0-2.28.68-4.19,2.05-5.71s3.19-2.29,5.46-2.29,4.11.79,5.38,2.38c1.26,1.58,1.9,3.56,1.9,5.92s-.66,4.16-1.99,5.76c-1.33,1.6-3.06,2.4-5.21,2.4ZM416.65,384.87c.82,0,1.53-.19,2.14-.58s1.22-1.08,1.82-2.08c.6-1,.91-2.37.91-4.09,0-1.5-.42-2.88-1.25-4.11-.83-1.23-2.05-1.85-3.65-1.85s-2.84.59-3.71,1.77-1.31,2.72-1.31,4.63c0,1.63.31,2.9.94,3.81s1.25,1.55,1.89,1.93c.63.38,1.37.57,2.22.57Z"/>
        <path class="cls-4" d="M428.31,382.63c.67.73,1.36,1.29,2.07,1.7.71.4,1.6.61,2.67.61s1.97-.23,2.67-.69c.7-.46,1.05-1.08,1.05-1.88,0-.55-.18-1.03-.53-1.42s-1.07-.79-2.14-1.17c-.4-.14-1.2-.41-2.38-.81-1.11-.29-2.15-.8-3.13-1.5s-1.46-1.71-1.46-3.01.53-2.24,1.58-3c1.05-.76,2.41-1.14,4.09-1.14.59,0,1.14.03,1.65.1.51.06.98.17,1.43.32.45.15.87.34,1.27.58.4.24.78.53,1.16.88l-1.34,1.61c-.67-.58-1.32-1-1.96-1.27-.63-.26-1.36-.4-2.18-.4-1,0-1.83.19-2.49.56-.65.37-.98.92-.98,1.64s.3,1.24.92,1.64c.61.41,1.33.74,2.17.98.44.14.88.28,1.31.43.43.15.87.29,1.31.43,1.4.5,2.4,1.09,3.01,1.77s.92,1.57.92,2.67c0,1.38-.57,2.47-1.7,3.29-1.13.82-2.53,1.22-4.19,1.22-1.3,0-2.45-.17-3.44-.49-1-.33-1.96-.98-2.9-1.94l1.55-1.68Z"/>
        <path class="cls-4" d="M442.69,372.49c.5-.52,1.32-1.02,2.45-1.49,1.13-.47,2.37-.71,3.72-.71,1.6,0,2.88.41,3.84,1.22.96.82,1.45,1.95,1.45,3.41v7.1c0,1.21.1,2,.3,2.35.2.36.55.54,1.05.54.33,0,.67-.04,1.02-.1l.37,1.08c-.27.26-.64.46-1.13.62s-.97.24-1.44.24c-.54,0-1.03-.2-1.47-.61-.44-.41-.71-1.11-.8-2.12h-.09c-.82.91-1.71,1.59-2.68,2.04-.97.46-2,.69-3.11.69-1.32,0-2.36-.35-3.14-1.04-.77-.69-1.16-1.69-1.16-3,0-1.4.44-2.54,1.33-3.42.89-.88,2.08-1.53,3.57-1.93s3.18-.6,5.05-.6v-1.24c0-1.31-.28-2.2-.83-2.67-.56-.47-1.28-.71-2.18-.71-1.13,0-2.13.23-3,.7-.87.47-1.5.88-1.89,1.25l-1.22-1.58ZM451.81,378.04c-2.21.03-4,.4-5.35,1.12-1.35.72-2.03,1.75-2.03,3.1,0,.84.23,1.45.69,1.84s1.08.59,1.87.59c.98,0,1.94-.22,2.86-.66.92-.44,1.58-.85,1.96-1.22v-4.77Z"/>
        <path class="cls-4" d="M459.85,363.36h2.33v19.86c0,.6.12,1.01.35,1.22.24.22.65.32,1.24.32.08,0,.19,0,.35-.01s.31-.02.46-.04l.34,1.36c-.18.08-.37.16-.59.24-.22.08-.44.15-.68.21-.24.06-.47.11-.71.15-.24.03-.46.05-.66.05-.77,0-1.36-.25-1.79-.74-.43-.49-.64-1.22-.64-2.2v-20.42Z"/>
      </g>
      <g>
        <path class="cls-4" d="M273.48,216.36v-23.12h2.51v23.12h-2.51Z"/>
        <path class="cls-4" d="M287.12,200.18c1.37,0,2.73.27,4.09.81v-7.75h2.33v18.09c0,1.31.05,2.29.15,2.94s.3,1.35.62,2.09h-1.99c-.45-.59-.75-1.26-.9-2.02h-.07c-.82.73-1.66,1.29-2.54,1.69-.88.4-1.78.6-2.71.6-1.72,0-3.19-.72-4.4-2.15-1.21-1.43-1.81-3.41-1.81-5.94,0-2.39.66-4.38,1.98-5.98,1.32-1.59,3.08-2.39,5.26-2.39ZM286.56,214.58c1.43,0,2.98-.53,4.65-1.58v-10.28c-1.12-.33-2.35-.5-3.67-.5-1.85,0-3.18.63-3.99,1.9-.81,1.26-1.22,2.69-1.22,4.29,0,1.7.41,3.16,1.22,4.37.81,1.21,1.82,1.81,3.02,1.81Z"/>
        <path class="cls-4" d="M311.28,213.51c-.7.92-1.55,1.67-2.55,2.25-1,.58-2.3.86-3.92.86-2.09,0-3.76-.74-5.03-2.22-1.27-1.48-1.9-3.57-1.9-6.26,0-2.35.58-4.27,1.73-5.75,1.15-1.48,2.84-2.22,5.06-2.22,1.88,0,3.36.52,4.46,1.55,1.09,1.03,1.71,2.47,1.84,4.32.06.7.07,1.43.04,2.2h-10.68c0,1.76.4,3.27,1.21,4.54.81,1.26,1.91,1.9,3.3,1.9,1.01,0,1.9-.21,2.66-.63s1.46-1.05,2.1-1.89l1.68,1.36ZM304.64,202.01c-1.39,0-2.43.47-3.14,1.42-.71.95-1.09,2.02-1.14,3.22h8.28c-.04-1.27-.35-2.36-.94-3.28-.59-.92-1.61-1.37-3.05-1.37Z"/>
        <path class="cls-4" d="M315.26,202.37c.5-.52,1.32-1.02,2.45-1.49,1.13-.47,2.37-.71,3.72-.71,1.6,0,2.88.41,3.84,1.22.96.82,1.45,1.95,1.45,3.41v7.1c0,1.21.1,2,.3,2.35.2.36.55.54,1.05.54.33,0,.67-.04,1.02-.1l.37,1.08c-.27.26-.64.46-1.13.62s-.97.24-1.44.24c-.54,0-1.03-.2-1.47-.61-.44-.41-.71-1.11-.8-2.12h-.09c-.82.91-1.71,1.59-2.68,2.04-.97.46-2,.69-3.11.69-1.32,0-2.36-.35-3.14-1.04-.77-.69-1.16-1.69-1.16-3,0-1.4.44-2.54,1.33-3.42.89-.88,2.08-1.53,3.57-1.93s3.18-.6,5.05-.6v-1.24c0-1.31-.28-2.2-.83-2.67-.56-.47-1.28-.71-2.18-.71-1.13,0-2.13.23-3,.7-.87.47-1.5.88-1.89,1.25l-1.22-1.58ZM324.38,207.92c-2.21.03-4,.4-5.35,1.12-1.35.72-2.03,1.75-2.03,3.1,0,.84.23,1.45.69,1.84s1.08.59,1.87.59c.98,0,1.94-.22,2.86-.66.92-.44,1.58-.85,1.96-1.22v-4.77Z"/>
        <path class="cls-4" d="M349.8,200.43c.07.32.13.84.18,1.53.72-.49,1.49-.91,2.32-1.26.83-.35,1.78-.52,2.84-.52.66,0,1.3.13,1.91.38s1.16.72,1.63,1.4c1.95-1.19,3.81-1.79,5.58-1.79.75,0,1.4.13,1.95.38.56.25,1.01.59,1.37,1.03.36.44.63.95.8,1.55.18.6.27,1.23.27,1.91v11.32h-2.33v-11.09c0-.54-.07-1.01-.21-1.41s-.34-.73-.6-1-.56-.46-.9-.59-.71-.19-1.11-.19c-1.43,0-2.82.36-4.18,1.09.13.58.19,1.22.19,1.92v11.27h-2.33v-11.07c0-1.1-.24-1.91-.73-2.43s-1.12-.78-1.9-.78c-.65,0-1.39.14-2.21.42s-1.58.63-2.26,1.05v12.81h-2.33v-14.08c-.02-.68-.06-1.3-.13-1.86h2.17Z"/>
        <path class="cls-4" d="M385.93,213.51c-.7.92-1.55,1.67-2.55,2.25-1,.58-2.3.86-3.92.86-2.09,0-3.76-.74-5.03-2.22-1.27-1.48-1.9-3.57-1.9-6.26,0-2.35.58-4.27,1.73-5.75,1.15-1.48,2.84-2.22,5.06-2.22,1.88,0,3.36.52,4.46,1.55,1.09,1.03,1.71,2.47,1.84,4.32.06.7.07,1.43.04,2.2h-10.68c0,1.76.4,3.27,1.21,4.54.81,1.26,1.91,1.9,3.3,1.9,1.01,0,1.9-.21,2.66-.63s1.46-1.05,2.1-1.89l1.68,1.36ZM379.29,202.01c-1.39,0-2.43.47-3.14,1.42-.71.95-1.09,2.02-1.14,3.22h8.28c-.04-1.27-.35-2.36-.94-3.28-.59-.92-1.61-1.37-3.05-1.37Z"/>
        <path class="cls-4" d="M402.63,213.51c-.7.92-1.55,1.67-2.55,2.25-1,.58-2.3.86-3.92.86-2.09,0-3.76-.74-5.03-2.22-1.27-1.48-1.9-3.57-1.9-6.26,0-2.35.58-4.27,1.73-5.75,1.15-1.48,2.84-2.22,5.06-2.22,1.88,0,3.36.52,4.46,1.55,1.09,1.03,1.71,2.47,1.84,4.32.06.7.07,1.43.04,2.2h-10.68c0,1.76.4,3.27,1.21,4.54.81,1.26,1.91,1.9,3.3,1.9,1.01,0,1.9-.21,2.66-.63s1.46-1.05,2.1-1.89l1.68,1.36ZM396,202.01c-1.39,0-2.43.47-3.14,1.42-.71.95-1.09,2.02-1.14,3.22h8.28c-.04-1.27-.35-2.36-.94-3.28-.59-.92-1.61-1.37-3.05-1.37Z"/>
        <path class="cls-4" d="M404.66,200.43h2.3v-4.03h2.33v4.03h3.88l-.25,2.02h-3.63v9.21c0,.92.15,1.65.45,2.2.3.55.77.83,1.41.83.34,0,.78-.05,1.3-.16.52-.1.87-.18,1.03-.23l.18,2.02c-.2.04-.61.1-1.25.18-.63.08-1.13.12-1.5.12-1.25,0-2.22-.31-2.91-.93-.69-.62-1.04-1.77-1.04-3.44v-9.81h-2.3v-2.02Z"/>
        <path class="cls-4" d="M416.78,195.26c0-.35.13-.68.38-.97.26-.29.59-.44,1.02-.44s.75.15,1,.44.38.62.38.97c0,.4-.14.74-.41,1.01-.28.27-.6.41-.96.41s-.7-.14-.98-.41-.42-.61-.42-1.01ZM417.02,200.43h2.33v15.93h-2.33v-15.93Z"/>
        <path class="cls-4" d="M424.18,202.48c0-.64-.04-1.32-.13-2.05h2.17c.09.43.15.94.18,1.53.7-.51,1.5-.94,2.4-1.28.9-.34,1.86-.51,2.87-.51,1.66,0,2.93.44,3.81,1.31.88.88,1.32,2.12,1.32,3.73v11.14h-2.33v-10.76c0-1.08-.24-1.94-.72-2.57-.48-.63-1.24-.95-2.28-.95-.84,0-1.7.14-2.6.41-.9.28-1.68.63-2.36,1.06v12.81h-2.33v-13.88Z"/>
        <path class="cls-4" d="M454.48,202.36c-.39,0-.76,0-1.09.06-.33.05-.66.12-.99.22.25.37.46.8.63,1.28.17.48.26,1.04.26,1.67,0,.96-.17,1.8-.5,2.5-.33.7-.78,1.28-1.34,1.74-.56.46-1.21.8-1.93,1.02-.73.22-1.49.33-2.27.33-.67,0-1.36-.08-2.08-.25-.16.02-.36.07-.6.16-.25.09-.48.21-.72.35-.23.15-.43.32-.6.51-.17.19-.25.4-.25.63,0,.26.17.46.52.61.34.15.8.27,1.36.38.56.1,1.55.25,2.98.45,1.5.25,2.61.47,3.33.67.71.2,1.35.47,1.91.8.56.33,1.01.75,1.36,1.23.34.49.52,1.08.52,1.79s-.13,1.26-.38,1.76c-.26.49-.6.91-1.03,1.26-.43.35-.92.63-1.48.86-.56.22-1.15.4-1.77.52s-1.25.21-1.88.26c-.63.04-1.24.07-1.81.07-.91,0-1.73-.08-2.49-.24-.75-.16-1.4-.4-1.94-.73-.54-.33-.96-.75-1.27-1.25-.3-.51-.46-1.11-.46-1.81,0-.37.07-.75.2-1.11.13-.37.31-.72.55-1.05.23-.33.5-.64.8-.93.3-.29.62-.54.95-.77-.27-.13-.53-.26-.78-.41-.26-.14-.48-.3-.69-.49-.2-.18-.37-.39-.49-.63-.13-.24-.19-.52-.19-.85,0-.35.11-.68.32-.97s.47-.56.78-.8c.31-.24.64-.43.98-.59s.65-.27.92-.34c-.83-.47-1.45-1.07-1.87-1.81-.42-.73-.63-1.65-.63-2.75,0-.9.18-1.69.54-2.38.36-.69.83-1.27,1.41-1.73.58-.46,1.24-.81,1.99-1.06.75-.24,1.51-.36,2.29-.36.68,0,1.36.09,2.04.28.68.19,1.31.47,1.9.84.77-.29,1.51-.5,2.24-.62.72-.12,1.41-.18,2.06-.18l-.27,1.89-.99-.03ZM444.02,215.71c-.44.48-.78.96-1.03,1.45-.24.48-.36.95-.36,1.4,0,.6.13,1.09.38,1.48.26.39.59.7.99.92.4.23.86.38,1.36.47.5.09,1,.13,1.5.13.28,0,.61-.02,1-.05.39-.03.79-.09,1.21-.17.42-.08.83-.18,1.24-.32.41-.13.77-.3,1.1-.49.32-.2.59-.43.79-.7s.3-.58.3-.94-.11-.65-.32-.92-.49-.51-.84-.71c-.35-.21-.76-.39-1.24-.56-.48-.17-1.29-.36-2.44-.58-.77-.12-1.36-.2-1.79-.24-.43-.04-.8-.08-1.13-.1s-.57-.05-.72-.07ZM447.46,209.68c.61,0,1.13-.1,1.56-.3.43-.2.78-.49,1.06-.86.28-.37.47-.82.6-1.34.12-.52.18-1.1.18-1.74,0-.48-.07-.95-.21-1.39s-.35-.84-.63-1.17-.64-.6-1.07-.8c-.43-.2-.94-.3-1.53-.3-.72,0-1.31.12-1.79.35s-.85.53-1.14.91-.49.8-.6,1.27c-.12.47-.18.95-.18,1.43s.08.97.23,1.45c.15.47.38.9.69,1.27.31.37.7.68,1.17.91s1.02.35,1.66.35Z"/>
      </g>
      <g>
        <path class="cls-4" d="M98.35,304.35h-2.3l-5.86-17.42v17.42h-2.51v-23.12h2.6l6.92,20.54,6.83-20.54h2.58v23.12h-2.51v-17.42l-5.75,17.42Z"/>
        <path class="cls-4" d="M111.21,290.37c.5-.52,1.32-1.02,2.45-1.49,1.13-.47,2.37-.71,3.72-.71,1.6,0,2.88.41,3.84,1.22.96.82,1.45,1.95,1.45,3.41v7.1c0,1.21.1,2,.3,2.35.2.36.55.54,1.05.54.33,0,.67-.04,1.02-.1l.37,1.08c-.27.26-.64.46-1.13.62s-.97.24-1.44.24c-.54,0-1.03-.2-1.47-.61-.44-.41-.71-1.11-.8-2.12h-.09c-.82.91-1.71,1.59-2.68,2.04-.97.46-2,.69-3.11.69-1.32,0-2.36-.35-3.14-1.04-.77-.69-1.16-1.69-1.16-3,0-1.4.44-2.54,1.33-3.42.89-.88,2.08-1.53,3.57-1.93s3.18-.6,5.05-.6v-1.24c0-1.31-.28-2.2-.83-2.67-.56-.47-1.28-.71-2.18-.71-1.13,0-2.13.23-3,.7-.87.47-1.5.88-1.89,1.25l-1.22-1.58ZM120.32,295.91c-2.21.03-4,.4-5.35,1.12-1.35.72-2.03,1.75-2.03,3.1,0,.84.23,1.45.69,1.84s1.08.59,1.87.59c.98,0,1.94-.22,2.86-.66.92-.44,1.58-.85,1.96-1.22v-4.77Z"/>
        <path class="cls-4" d="M130.46,288.42c.07.26.12.6.15,1.03.03.43.05.99.05,1.67.76-.91,1.65-1.62,2.66-2.15s2.08-.8,3.18-.8c.13,0,.26,0,.41.03.14.02.25.04.32.06l-.5,2.43c-.29-.08-.67-.12-1.12-.12-1.31,0-2.4.29-3.26.88-.87.59-1.42,1.17-1.67,1.74v11.15h-2.33v-13.74c-.02-1.27-.05-2-.09-2.2h2.2Z"/>
        <path class="cls-4" d="M141.72,294.57l6.62-6.15h2.83l-6.43,5.81,6.73,10.12h-2.76l-5.37-8.99-1.62,1.39v7.6h-2.33v-23.12h2.33v13.34Z"/>
        <path class="cls-4" d="M167.4,301.51c-.7.92-1.55,1.67-2.55,2.25-1,.58-2.3.86-3.92.86-2.09,0-3.76-.74-5.03-2.22-1.27-1.48-1.9-3.57-1.9-6.26,0-2.35.58-4.27,1.73-5.75,1.15-1.48,2.84-2.22,5.06-2.22,1.88,0,3.36.52,4.46,1.55,1.09,1.03,1.71,2.47,1.84,4.32.06.7.07,1.43.04,2.2h-10.68c0,1.76.4,3.27,1.21,4.54.81,1.26,1.91,1.9,3.3,1.9,1.01,0,1.9-.21,2.66-.63s1.46-1.05,2.1-1.89l1.68,1.36ZM160.76,290c-1.39,0-2.43.47-3.14,1.42-.71.95-1.09,2.02-1.14,3.22h8.28c-.04-1.27-.35-2.36-.94-3.28-.59-.92-1.61-1.37-3.05-1.37Z"/>
        <path class="cls-4" d="M169.43,288.42h2.3v-4.03h2.33v4.03h3.88l-.25,2.02h-3.63v9.21c0,.92.15,1.65.45,2.2.3.55.77.83,1.41.83.34,0,.78-.05,1.3-.16.52-.1.87-.18,1.03-.23l.18,2.02c-.2.04-.61.1-1.25.18-.63.08-1.13.12-1.5.12-1.25,0-2.22-.31-2.91-.93-.69-.62-1.04-1.77-1.04-3.44v-9.81h-2.3v-2.02Z"/>
        <path class="cls-4" d="M198.82,288.42c.07.26.12.6.15,1.03.03.43.05.99.05,1.67.76-.91,1.65-1.62,2.66-2.15s2.08-.8,3.18-.8c.13,0,.26,0,.41.03.14.02.25.04.32.06l-.5,2.43c-.29-.08-.67-.12-1.12-.12-1.31,0-2.4.29-3.26.88-.87.59-1.42,1.17-1.67,1.74v11.15h-2.33v-13.74c-.02-1.27-.05-2-.09-2.2h2.2Z"/>
        <path class="cls-4" d="M220.64,301.51c-.7.92-1.55,1.67-2.55,2.25-1,.58-2.3.86-3.92.86-2.09,0-3.76-.74-5.03-2.22-1.27-1.48-1.9-3.57-1.9-6.26,0-2.35.58-4.27,1.73-5.75,1.15-1.48,2.84-2.22,5.06-2.22,1.88,0,3.36.52,4.46,1.55,1.09,1.03,1.71,2.47,1.84,4.32.06.7.07,1.43.04,2.2h-10.68c0,1.76.4,3.27,1.21,4.54.81,1.26,1.91,1.9,3.3,1.9,1.01,0,1.9-.21,2.66-.63s1.46-1.05,2.1-1.89l1.68,1.36ZM214,290c-1.39,0-2.43.47-3.14,1.42-.71.95-1.09,2.02-1.14,3.22h8.28c-.04-1.27-.35-2.36-.94-3.28-.59-.92-1.61-1.37-3.05-1.37Z"/>
        <path class="cls-4" d="M224.87,300.5c.67.73,1.36,1.29,2.07,1.7.71.4,1.6.61,2.67.61s1.97-.23,2.67-.69c.7-.46,1.05-1.08,1.05-1.88,0-.55-.18-1.03-.53-1.42s-1.07-.79-2.14-1.17c-.4-.14-1.2-.41-2.38-.81-1.11-.29-2.15-.8-3.13-1.5s-1.46-1.71-1.46-3.01.53-2.24,1.58-3c1.05-.76,2.41-1.14,4.09-1.14.59,0,1.14.03,1.65.1.51.06.98.17,1.43.32.45.15.87.34,1.27.58.4.24.78.53,1.16.88l-1.34,1.61c-.67-.58-1.32-1-1.96-1.27-.63-.26-1.36-.4-2.18-.4-1,0-1.83.19-2.49.56-.65.37-.98.92-.98,1.64s.3,1.24.92,1.64c.61.41,1.33.74,2.17.98.44.14.88.28,1.31.43.43.15.87.29,1.31.43,1.4.5,2.4,1.09,3.01,1.77s.92,1.57.92,2.67c0,1.38-.57,2.47-1.7,3.29-1.13.82-2.53,1.22-4.19,1.22-1.3,0-2.45-.17-3.44-.49-1-.33-1.96-.98-2.9-1.94l1.55-1.68Z"/>
        <path class="cls-4" d="M251.98,301.51c-.7.92-1.55,1.67-2.55,2.25-1,.58-2.3.86-3.92.86-2.09,0-3.76-.74-5.03-2.22-1.27-1.48-1.9-3.57-1.9-6.26,0-2.35.58-4.27,1.73-5.75,1.15-1.48,2.84-2.22,5.06-2.22,1.88,0,3.36.52,4.46,1.55,1.09,1.03,1.71,2.47,1.84,4.32.06.7.07,1.43.04,2.2h-10.68c0,1.76.4,3.27,1.21,4.54.81,1.26,1.91,1.9,3.3,1.9,1.01,0,1.9-.21,2.66-.63s1.46-1.05,2.1-1.89l1.68,1.36ZM245.34,290c-1.39,0-2.43.47-3.14,1.42-.71.95-1.09,2.02-1.14,3.22h8.28c-.04-1.27-.35-2.36-.94-3.28-.59-.92-1.61-1.37-3.05-1.37Z"/>
        <path class="cls-4" d="M255.96,290.37c.5-.52,1.32-1.02,2.45-1.49,1.13-.47,2.37-.71,3.72-.71,1.6,0,2.88.41,3.84,1.22.96.82,1.45,1.95,1.45,3.41v7.1c0,1.21.1,2,.3,2.35.2.36.55.54,1.05.54.33,0,.67-.04,1.02-.1l.37,1.08c-.27.26-.64.46-1.13.62s-.97.24-1.44.24c-.54,0-1.03-.2-1.47-.61-.44-.41-.71-1.11-.8-2.12h-.09c-.82.91-1.71,1.59-2.68,2.04-.97.46-2,.69-3.11.69-1.32,0-2.36-.35-3.14-1.04-.77-.69-1.16-1.69-1.16-3,0-1.4.44-2.54,1.33-3.42.89-.88,2.08-1.53,3.57-1.93s3.18-.6,5.05-.6v-1.24c0-1.31-.28-2.2-.83-2.67-.56-.47-1.28-.71-2.18-.71-1.13,0-2.13.23-3,.7-.87.47-1.5.88-1.89,1.25l-1.22-1.58ZM265.08,295.91c-2.21.03-4,.4-5.35,1.12-1.35.72-2.03,1.75-2.03,3.1,0,.84.23,1.45.69,1.84s1.08.59,1.87.59c.98,0,1.94-.22,2.86-.66.92-.44,1.58-.85,1.96-1.22v-4.77Z"/>
        <path class="cls-4" d="M275.21,288.42c.07.26.12.6.15,1.03.03.43.05.99.05,1.67.76-.91,1.65-1.62,2.66-2.15s2.08-.8,3.18-.8c.13,0,.26,0,.41.03.14.02.25.04.32.06l-.5,2.43c-.29-.08-.67-.12-1.12-.12-1.31,0-2.4.29-3.26.88-.87.59-1.42,1.17-1.67,1.74v11.15h-2.33v-13.74c-.02-1.27-.05-2-.09-2.2h2.2Z"/>
        <path class="cls-4" d="M296.68,301.73c-.59.88-1.38,1.57-2.35,2.09-.98.52-2.18.77-3.59.77-2.2,0-3.96-.77-5.26-2.31-1.3-1.54-1.95-3.52-1.95-5.95s.66-4.31,1.97-5.85c1.31-1.54,3.08-2.31,5.3-2.31,1.29,0,2.36.19,3.21.56.85.37,1.58.9,2.18,1.56l-1.52,1.37c-.58-.64-1.17-1.1-1.76-1.37-.59-.28-1.28-.41-2.08-.41-1.52,0-2.71.58-3.57,1.75-.86,1.17-1.28,2.65-1.28,4.46s.46,3.46,1.36,4.78c.91,1.32,2.07,1.98,3.47,1.98,1.2,0,2.09-.19,2.68-.57.58-.38,1.15-.94,1.69-1.67l1.5,1.12Z"/>
        <path class="cls-4" d="M300.09,281.23h2.33v8.41c.53-.31,1.23-.64,2.1-.97s1.86-.5,2.96-.5c1.67,0,2.95.48,3.84,1.45.89.96,1.33,2.27,1.33,3.91v10.83h-2.33v-10.7c.01-1.13-.27-2.01-.83-2.64-.56-.63-1.44-.94-2.63-.94-.75,0-1.51.13-2.3.38-.79.26-1.5.56-2.15.9v13h-2.33v-23.12Z"/>
      </g>
      <g>
        <path class="cls-1" d="M7.55,455.03c-1.18-1.3-2.07-2.63-2.67-3.97-.6-1.34-.9-2.66-.9-3.94s.3-2.54.89-3.8,1.49-2.49,2.67-3.7l.48.45c-.46.57-.85,1.15-1.19,1.74-.33.59-.61,1.19-.83,1.79-.22.6-.38,1.2-.48,1.8s-.16,1.19-.16,1.78c0,1.19.21,2.41.64,3.66.43,1.25,1.1,2.51,2.01,3.78l-.48.4Z"/>
        <path class="cls-1" d="M11.05,448.31l3.67-3.41h1.57l-3.56,3.22,3.73,5.61h-1.53l-2.98-4.98-.9.77v4.21h-1.29v-12.81h1.29v7.39Z"/>
        <path class="cls-1" d="M18.26,446.04c0-.35-.02-.73-.07-1.14h1.2c.05.24.08.52.1.85.39-.28.83-.52,1.33-.71s1.03-.28,1.59-.28c.92,0,1.63.24,2.11.73.49.49.73,1.17.73,2.07v6.17h-1.29v-5.96c0-.6-.13-1.08-.4-1.43-.26-.35-.69-.53-1.26-.53-.46,0-.94.08-1.44.23-.5.15-.93.35-1.31.59v7.1h-1.29v-7.69Z"/>
        <path class="cls-1" d="M31.67,453.88c-1.38,0-2.43-.43-3.14-1.28-.71-.86-1.06-1.99-1.06-3.4,0-1.26.38-2.32,1.14-3.16.76-.84,1.77-1.27,3.02-1.27s2.28.44,2.98,1.32c.7.88,1.05,1.97,1.05,3.28s-.37,2.31-1.1,3.19-1.7,1.33-2.89,1.33ZM31.62,452.84c.45,0,.85-.11,1.19-.32s.67-.6,1.01-1.15c.33-.56.5-1.31.5-2.26,0-.83-.23-1.59-.69-2.28-.46-.68-1.14-1.03-2.02-1.03s-1.57.33-2.06.98-.72,1.51-.72,2.57c0,.9.17,1.61.52,2.11.35.5.69.86,1.05,1.07s.76.31,1.23.31Z"/>
        <path class="cls-1" d="M36.86,444.9h1.39l1.78,6.85,1.79-6.85h.83l1.9,6.83,1.71-6.83h1.39l-2.66,8.83h-.91l-1.85-6.96-1.77,6.96h-.91l-2.71-8.83Z"/>
        <path class="cls-1" d="M49.09,440.92h1.29v11c0,.33.07.56.2.68s.36.18.69.18c.04,0,.11,0,.19,0,.08,0,.17-.01.26-.03l.19.75c-.1.04-.21.09-.33.13-.12.04-.25.08-.38.12s-.26.06-.39.08c-.13.02-.25.03-.37.03-.42,0-.76-.14-.99-.41-.24-.27-.36-.68-.36-1.22v-11.32Z"/>
        <path class="cls-1" d="M60.35,452.15c-.39.51-.86.93-1.41,1.25-.55.32-1.28.48-2.17.48-1.16,0-2.08-.41-2.79-1.23s-1.05-1.98-1.05-3.47c0-1.3.32-2.36.96-3.18s1.57-1.23,2.8-1.23c1.04,0,1.86.29,2.47.86s.95,1.37,1.02,2.4c.03.39.04.79.02,1.22h-5.92c0,.98.22,1.81.67,2.51.45.7,1.06,1.05,1.83,1.05.56,0,1.05-.12,1.47-.35.42-.23.81-.58,1.16-1.05l.93.75ZM56.67,445.77c-.77,0-1.35.26-1.74.79-.39.53-.6,1.12-.63,1.79h4.59c-.02-.7-.2-1.31-.52-1.81-.33-.51-.89-.76-1.69-.76Z"/>
        <path class="cls-1" d="M66.21,444.76c.76,0,1.51.15,2.26.45v-4.29h1.29v10.02c0,.73.03,1.27.08,1.63.05.36.17.75.34,1.16h-1.1c-.25-.33-.42-.7-.5-1.12h-.04c-.45.4-.92.72-1.41.94-.49.22-.99.33-1.5.33-.95,0-1.77-.4-2.44-1.19s-1.01-1.89-1.01-3.29c0-1.32.37-2.43,1.1-3.31.73-.88,1.7-1.32,2.91-1.32ZM65.9,452.74c.79,0,1.65-.29,2.58-.88v-5.7c-.62-.19-1.3-.28-2.04-.28-1.02,0-1.76.35-2.21,1.05-.45.7-.67,1.49-.67,2.38,0,.94.23,1.75.67,2.42.45.67,1.01,1.01,1.67,1.01Z"/>
        <path class="cls-1" d="M79.82,445.97c-.22,0-.42,0-.6.03-.19.03-.37.07-.55.12.14.21.25.44.35.71.1.26.14.57.14.93,0,.53-.09,1-.28,1.39-.19.39-.43.71-.74.96-.31.25-.67.44-1.07.56-.4.12-.82.18-1.26.18-.37,0-.75-.05-1.15-.14-.09.01-.2.04-.34.09-.14.05-.27.11-.4.2s-.24.18-.33.28-.14.22-.14.35c0,.14.1.25.29.33s.44.15.75.21c.31.06.86.14,1.65.25.83.14,1.45.26,1.84.37.4.11.75.26,1.06.45s.56.41.75.68.29.6.29.99-.07.7-.21.97c-.14.27-.33.5-.57.7-.24.19-.51.35-.82.47-.31.12-.64.22-.98.29-.34.07-.69.12-1.04.14-.35.02-.69.04-1,.04-.5,0-.96-.04-1.38-.13-.42-.09-.78-.22-1.08-.4s-.53-.41-.7-.7c-.17-.28-.25-.61-.25-1,0-.21.04-.41.11-.62.07-.21.17-.4.3-.58s.27-.36.44-.51c.17-.16.34-.3.53-.43-.15-.07-.29-.15-.43-.22-.14-.08-.27-.17-.38-.27s-.2-.22-.27-.35-.11-.29-.11-.47c0-.2.06-.38.18-.54s.26-.31.43-.44c.17-.13.35-.24.54-.33s.36-.15.51-.19c-.46-.26-.8-.59-1.04-1s-.35-.91-.35-1.52c0-.5.1-.94.3-1.32.2-.38.46-.71.78-.96s.69-.45,1.1-.58c.41-.13.84-.2,1.27-.2.38,0,.75.05,1.13.16.38.1.73.26,1.05.47.43-.16.84-.28,1.24-.34s.78-.1,1.14-.1l-.15,1.05-.55-.02ZM74.02,453.37c-.25.27-.43.53-.57.8-.13.27-.2.53-.2.78,0,.33.07.61.21.82.14.21.32.39.55.51.22.12.47.21.75.26s.56.07.83.07c.15,0,.34,0,.55-.03.22-.02.44-.05.67-.09.23-.04.46-.1.69-.18.23-.07.43-.17.61-.27.18-.11.33-.24.44-.39.11-.15.17-.32.17-.52s-.06-.36-.18-.51c-.12-.15-.27-.28-.47-.4-.19-.12-.42-.22-.69-.31-.26-.09-.72-.2-1.35-.32-.43-.07-.76-.11-.99-.13-.24-.02-.45-.04-.63-.06-.18-.01-.31-.03-.4-.04ZM75.93,450.03c.34,0,.62-.06.86-.17s.43-.27.58-.48c.15-.21.26-.46.33-.74.07-.29.1-.61.1-.96,0-.27-.04-.53-.11-.77s-.19-.46-.35-.65c-.16-.19-.35-.33-.59-.45-.24-.11-.52-.17-.85-.17-.4,0-.73.06-.99.19-.26.13-.47.3-.63.5s-.27.44-.33.7c-.07.26-.1.53-.1.79s.04.54.13.8.21.5.38.7c.17.21.39.38.65.5s.57.19.92.19Z"/>
        <path class="cls-1" d="M88.85,452.15c-.39.51-.86.93-1.41,1.25-.55.32-1.28.48-2.17.48-1.16,0-2.08-.41-2.79-1.23s-1.05-1.98-1.05-3.47c0-1.3.32-2.36.96-3.18s1.57-1.23,2.8-1.23c1.04,0,1.86.29,2.47.86s.95,1.37,1.02,2.4c.03.39.04.79.02,1.22h-5.92c0,.98.22,1.81.67,2.51.45.7,1.06,1.05,1.83,1.05.56,0,1.05-.12,1.47-.35.42-.23.81-.58,1.16-1.05l.93.75ZM85.17,445.77c-.77,0-1.35.26-1.74.79-.39.53-.6,1.12-.63,1.79h4.59c-.02-.7-.2-1.31-.52-1.81-.33-.51-.89-.76-1.69-.76Z"/>
        <path class="cls-1" d="M90.82,455.03l-.52-.42c.92-1.25,1.58-2.5,2.01-3.74.42-1.24.63-2.48.63-3.71s-.21-2.41-.63-3.58c-.42-1.17-1.09-2.33-2.01-3.47l.52-.48c1.17,1.22,2.04,2.44,2.63,3.68s.88,2.5.88,3.79-.29,2.61-.87,3.93c-.58,1.32-1.46,2.66-2.64,4.01Z"/>
      </g>
      <text/>
      <path class="cls-5" d="M409.94,61.74c38.92,5.32,66.02,19.57,81.16,29.22,18.03,11.5,37.22,24.1,45.3,47.97,1.62,4.79,10.69,31.53-4,47.97-8.22,9.2-24.13,15.45-34.64,9.33-5.35-3.12-10.57-10.17-9.33-17.32.97-5.59,5.73-10.35,10.66-11.99,14.4-4.8,33.99,15.62,42.64,27.98,16.23,23.2,15.91,49.44,14.66,62.63"/>
      <g>
        <path class="cls-1" d="M549.48,268.63c1.2-1.28,2.45-2.28,3.74-2.98,1.29-.7,2.57-1.11,3.85-1.21,1.27-.1,2.56.09,3.86.58,1.3.49,2.6,1.28,3.9,2.37l-.41.52c-.6-.41-1.21-.76-1.83-1.05-.62-.29-1.23-.51-1.85-.68-.62-.17-1.23-.28-1.83-.33-.61-.05-1.2-.06-1.79,0-1.19.09-2.39.41-3.6.93s-2.41,1.29-3.6,2.31l-.44-.45Z"/>
        <path class="cls-1" d="M559.76,270.26l.1,1.29-8.81.65-.1-1.29,8.81-.65ZM562.6,269.92c.2-.01.38.04.55.17.17.13.27.31.29.54.02.23-.05.42-.2.57-.15.15-.33.23-.52.25-.22.02-.41-.04-.58-.19-.16-.14-.25-.31-.26-.51-.02-.21.05-.39.18-.56.14-.17.32-.26.54-.27Z"/>
        <path class="cls-1" d="M560.42,277.87c.05.76-.05,1.52-.31,2.29l4.28-.27.08,1.29-10,.63c-.72.05-1.26.11-1.62.18-.36.08-.74.22-1.13.42l-.07-1.1c.31-.27.67-.46,1.09-.57v-.04c-.43-.43-.77-.87-1.02-1.34s-.39-.96-.42-1.48c-.06-.95.29-1.79,1.03-2.51.75-.72,1.82-1.12,3.22-1.21,1.32-.08,2.45.21,3.37.89.93.68,1.43,1.62,1.5,2.83ZM552.44,278.06c.05.79.39,1.63,1.03,2.51l5.69-.36c.15-.63.2-1.31.15-2.05-.06-1.02-.46-1.74-1.19-2.14-.73-.41-1.53-.58-2.41-.52-.94.06-1.73.33-2.37.83-.64.49-.94,1.07-.9,1.73Z"/>
        <path class="cls-1" d="M553.75,291.68c-.53-.36-.97-.81-1.31-1.35-.34-.54-.54-1.25-.58-2.15-.06-1.15.31-2.1,1.1-2.84.79-.74,1.92-1.15,3.42-1.22,1.3-.06,2.38.21,3.23.8.85.6,1.3,1.51,1.36,2.74.05,1.04-.2,1.88-.74,2.51-.54.63-1.32,1.01-2.34,1.14-.38.05-.79.08-1.22.08l-.28-5.91c-.97.05-1.8.31-2.48.79-.68.48-1,1.11-.96,1.88.03.56.17,1.05.42,1.46.25.41.62.78,1.1,1.11l-.71.97ZM559.95,287.7c-.04-.77-.33-1.33-.87-1.7-.54-.37-1.15-.55-1.81-.54l.22,4.58c.7-.06,1.3-.26,1.79-.61.49-.35.72-.93.68-1.73Z"/>
        <path class="cls-1" d="M560.01,293.66c.3.27.59.71.87,1.33.28.62.44,1.3.46,2.05.03.89-.17,1.6-.61,2.15-.43.55-1.05.84-1.86.86l-3.93.13c-.67.02-1.1.09-1.3.21-.2.11-.29.31-.28.59,0,.19.03.37.08.56l-.59.22c-.15-.14-.27-.35-.36-.61-.1-.27-.15-.53-.16-.79,0-.3.09-.58.31-.83.22-.25.6-.41,1.16-.48v-.05c-.52-.44-.91-.92-1.18-1.45-.27-.53-.42-1.1-.44-1.71-.02-.73.15-1.31.52-1.75s.92-.67,1.64-.7c.77-.02,1.41.2,1.92.67.51.48.88,1.12,1.14,1.94.25.82.39,1.75.43,2.78l.69-.02c.73-.02,1.21-.19,1.46-.51.25-.32.37-.72.35-1.22-.02-.62-.17-1.17-.44-1.64-.27-.47-.52-.81-.73-1.02l.85-.71ZM557.1,298.81c-.06-1.22-.3-2.21-.72-2.94-.42-.74-1.01-1.09-1.75-1.07-.46.01-.8.15-1.01.41-.21.26-.31.61-.29,1.04.02.55.16,1.07.42,1.57.26.5.5.86.71,1.06l2.64-.09Z"/>
        <path class="cls-1" d="M554.83,311.94c-.4.37-.71.75-.94,1.15-.22.39-.33.89-.33,1.48,0,.6.13,1.09.39,1.48.25.39.6.58,1.04.58.31,0,.57-.1.79-.3.22-.2.43-.59.64-1.19.08-.22.22-.66.44-1.32.16-.62.44-1.2.83-1.74.39-.54.94-.81,1.66-.82.69,0,1.24.29,1.67.87.43.58.64,1.33.64,2.26,0,.33-.02.63-.05.91-.03.28-.09.55-.17.79-.08.25-.19.48-.32.7-.13.22-.29.44-.49.64l-.89-.74c.32-.37.55-.73.7-1.09.15-.35.22-.75.21-1.21,0-.56-.11-1.01-.32-1.38-.21-.36-.51-.54-.91-.54-.38,0-.68.17-.91.51-.22.34-.4.74-.54,1.21-.08.25-.15.49-.23.73-.08.24-.16.48-.23.73-.27.77-.6,1.33-.97,1.67-.37.34-.87.51-1.48.51-.76,0-1.37-.31-1.83-.93-.46-.62-.69-1.4-.69-2.32,0-.72.08-1.36.26-1.91.18-.55.54-1.09,1.07-1.61l.94.85Z"/>
        <path class="cls-1" d="M565.53,319.96v1.29s-4.67-.05-4.67-.05c.17.3.35.68.53,1.17s.27,1.03.26,1.64c0,.93-.28,1.63-.82,2.12-.54.49-1.26.73-2.17.72l-6-.06v-1.29s5.94.07,5.94.07c.63,0,1.12-.14,1.47-.45.35-.31.53-.79.54-1.45,0-.41-.06-.84-.2-1.28-.14-.44-.3-.84-.49-1.2l-7.2-.07v-1.29s12.82.13,12.82.13Z"/>
        <path class="cls-1" d="M560.35,329.48c.28.29.54.75.79,1.38.24.63.36,1.33.34,2.07-.02.89-.27,1.59-.74,2.11-.47.52-1.1.77-1.91.75l-3.93-.11c-.67-.02-1.11.02-1.31.13-.2.1-.31.29-.31.57,0,.19,0,.38.04.57l-.6.19c-.14-.15-.25-.36-.33-.63-.08-.27-.12-.54-.11-.8,0-.3.13-.57.36-.8.23-.24.63-.38,1.19-.41v-.05c-.49-.46-.85-.97-1.09-1.51-.24-.54-.35-1.12-.33-1.73.02-.73.23-1.3.62-1.72.4-.42.96-.62,1.68-.6.77.02,1.4.28,1.88.79.48.5.82,1.17,1.02,2.01s.29,1.77.26,2.81l.69.02c.72.02,1.22-.12,1.49-.42.27-.3.41-.7.42-1.2.02-.63-.1-1.18-.34-1.67-.25-.49-.47-.84-.66-1.06l.89-.66ZM557.14,334.45c.02-1.23-.16-2.22-.54-2.98-.38-.76-.94-1.15-1.69-1.17-.46-.01-.81.1-1.03.35s-.34.59-.35,1.03c-.01.54.09,1.08.32,1.59s.45.89.65,1.11l2.64.07Z"/>
        <path class="cls-1" d="M561.13,340.23c-.14.03-.33.06-.57.07s-.55.01-.93,0c.49.43.87.94,1.15,1.51.28.57.4,1.17.38,1.78,0,.07-.01.15-.02.22-.01.08-.03.14-.04.17l-1.34-.32c.05-.16.08-.37.09-.62.02-.72-.12-1.33-.43-1.82s-.62-.81-.93-.96l-6.18-.2.04-1.29,7.61.25c.7.01,1.11,0,1.22,0l-.04,1.22Z"/>
        <path class="cls-1" d="M560.95,345.37l-.05,1.29-8.82-.33.05-1.29,8.82.33ZM563.82,345.34c.2,0,.37.09.53.23.16.15.23.34.22.57,0,.23-.1.41-.27.54s-.35.2-.55.19c-.22,0-.41-.09-.55-.25-.14-.16-.21-.34-.21-.54,0-.21.09-.38.25-.54.16-.15.35-.22.57-.21Z"/>
        <path class="cls-1" d="M559.67,349.33c.35.02.73,0,1.14-.02l-.05,1.2c-.24.04-.53.06-.85.06.27.4.48.85.65,1.36.17.51.24,1.04.21,1.6-.04.92-.31,1.61-.82,2.08s-1.21.68-2.1.64l-6.17-.28.06-1.29,5.95.27c.6.03,1.08-.08,1.44-.33.36-.25.56-.66.58-1.24.02-.46-.03-.95-.16-1.45-.13-.5-.31-.95-.53-1.33l-7.09-.32.06-1.29,7.69.34Z"/>
        <path class="cls-1" d="M558.87,366.17c.02-.22.02-.42,0-.61-.02-.19-.05-.37-.09-.55-.21.12-.46.23-.73.3-.27.08-.58.11-.93.09-.53-.03-.99-.15-1.37-.36-.38-.21-.69-.47-.92-.8-.24-.33-.4-.69-.5-1.1-.1-.41-.14-.83-.11-1.27.02-.37.09-.75.21-1.14,0-.09-.03-.2-.07-.34-.04-.14-.1-.27-.17-.41s-.16-.25-.26-.35c-.1-.1-.21-.15-.34-.16-.14,0-.26.08-.35.27-.09.18-.18.43-.25.74-.08.31-.19.85-.35,1.63-.18.83-.34,1.43-.48,1.82-.13.39-.3.73-.51,1.03-.2.3-.44.54-.73.71-.28.17-.62.25-1.01.23-.38-.02-.69-.11-.96-.27-.26-.16-.49-.36-.66-.61-.18-.25-.32-.53-.43-.85-.1-.32-.18-.65-.23-1s-.08-.7-.08-1.05c0-.35,0-.69.02-1,.03-.5.1-.96.21-1.37.11-.41.27-.76.47-1.05.2-.29.44-.51.73-.66.29-.15.63-.22,1.01-.19.21.01.41.06.61.15.2.09.39.2.57.34s.34.29.49.47c.15.17.28.36.39.55.08-.14.16-.28.25-.42.09-.14.18-.26.29-.36s.23-.19.37-.25c.14-.06.3-.09.48-.08.2.01.37.08.53.21.16.13.29.28.42.46.12.18.22.37.29.56.08.2.13.37.16.52.29-.44.64-.77,1.06-.98.42-.21.93-.3,1.54-.26.5.03.93.15,1.3.38.37.22.68.5.91.83.24.34.41.71.52,1.14.11.42.15.85.13,1.28-.02.38-.1.75-.22,1.12-.13.37-.3.71-.53,1.03.14.43.23.85.27,1.26.04.4.05.79.03,1.14l-1.04-.21.05-.55ZM551.82,359.96c-.25-.26-.51-.46-.77-.61s-.51-.23-.76-.25c-.33-.02-.61.04-.83.17-.22.13-.4.3-.54.52-.14.22-.24.46-.31.74-.07.27-.11.55-.12.83,0,.15-.01.34,0,.55,0,.22.02.44.05.67.03.23.08.46.14.7.06.23.14.44.24.62.1.19.22.34.36.46.14.12.31.19.51.2.19,0,.36-.04.52-.15.16-.11.3-.26.42-.44.13-.19.24-.41.35-.67.11-.26.24-.7.4-1.33.09-.42.15-.75.19-.98.04-.24.07-.44.09-.62.02-.18.04-.31.06-.4ZM555.04,362.05c-.02.34.02.63.12.87.1.24.25.45.44.61.2.16.44.29.72.37s.6.14.96.16c.27.02.53,0,.78-.07.25-.06.47-.16.67-.31.19-.14.35-.33.48-.57.12-.23.2-.51.22-.84.02-.4-.02-.73-.13-1-.11-.27-.27-.49-.46-.66-.2-.17-.43-.29-.68-.38-.26-.08-.52-.13-.79-.14-.27-.02-.54.01-.81.08-.27.07-.51.18-.72.34-.22.16-.4.37-.54.62-.14.25-.22.55-.25.91Z"/>
        <path class="cls-1" d="M549.7,367.32l.45-.49c1.18,1,2.38,1.76,3.59,2.27s2.43.81,3.66.9c1.21.09,2.42-.04,3.62-.37,1.2-.33,2.4-.92,3.61-1.76l.44.56c-1.3,1.08-2.58,1.86-3.86,2.36-1.28.49-2.56.7-3.84.6-1.29-.09-2.58-.48-3.86-1.15s-2.55-1.65-3.81-2.92Z"/>
      </g>
      <path class="cls-5" d="M448.79,532.69c12.72-46.19,29.97-60.85,43.97-65.29,6.06-1.92,11.47-1.91,18.86-4.24,4.02-1.27,7.33-2.86,9.12-3.75,14.52-7.22,22.74-23.15,26.04-29.54,6.82-13.2,9.21-25.77,10-35,.67-6,1.33-12,2-18"/>
      <polyline class="cls-5" points="440.67 498.48 448.29 534.01 482.44 517.56"/>
      <path class="cls-5" d="M196.17,52.99s-104.29.8-130.53,85.34"/>
      <g>
        <path class="cls-1" d="M29.32,339.67c-.42,1.71-1.01,3.19-1.79,4.43-.78,1.25-1.7,2.23-2.76,2.95-1.06.71-2.27,1.18-3.65,1.39-1.37.21-2.89.16-4.56-.14l.1-.65c.73.06,1.43.07,2.11.01.68-.05,1.33-.16,1.94-.32.62-.16,1.21-.36,1.76-.61.55-.25,1.08-.54,1.56-.87.99-.67,1.88-1.53,2.68-2.58s1.46-2.31,2-3.78l.6.17Z"/>
        <path class="cls-1" d="M21.74,340.27l4.6-2.81.73,1.19-10.93,6.68-1.81-2.96c-.69-1.12-.94-2.16-.76-3.1.18-.95.77-1.73,1.78-2.35.84-.51,1.8-.61,2.87-.29,1.07.32,2.01,1.14,2.81,2.46l.72,1.19ZM20.83,340.83l-.7-1.15c-.55-.89-1.19-1.47-1.94-1.74-.74-.27-1.47-.18-2.18.25-.75.46-1.17,1.01-1.27,1.65-.09.64.16,1.44.74,2.4l.83,1.35,4.52-2.76Z"/>
        <path class="cls-1" d="M13.97,333.83c.11-.1.26-.22.46-.35.2-.13.47-.29.8-.47-.64-.13-1.22-.37-1.75-.73-.53-.36-.94-.8-1.23-1.34-.03-.06-.07-.13-.09-.21-.03-.07-.05-.13-.06-.17l1.32-.4c.04.17.12.36.24.58.34.64.77,1.09,1.29,1.35.52.27.95.38,1.29.35l5.44-2.94.61,1.14-6.69,3.62c-.61.34-.96.55-1.05.62l-.58-1.07Z"/>
        <path class="cls-1" d="M17.93,321.77c.58,1.26.63,2.39.16,3.39-.48,1-1.36,1.8-2.64,2.39-1.15.53-2.26.63-3.35.3-1.09-.33-1.89-1.07-2.42-2.21-.54-1.17-.56-2.25-.06-3.26.5-1,1.35-1.78,2.53-2.33,1.13-.52,2.25-.64,3.36-.34,1.11.29,1.92.98,2.42,2.06ZM17.01,322.26c-.19-.41-.45-.72-.79-.94s-.83-.36-1.47-.43c-.65-.07-1.4.1-2.27.5-.76.35-1.35.88-1.78,1.58-.43.71-.45,1.46-.08,2.27.38.81.96,1.29,1.76,1.45.8.16,1.67.02,2.63-.42.82-.38,1.39-.83,1.7-1.36.31-.53.48-.99.53-1.4.04-.41-.04-.82-.23-1.25Z"/>
        <path class="cls-1" d="M5.59,312.16c.07.21.15.39.24.56s.19.32.3.47c.15-.2.33-.39.55-.57.22-.18.49-.33.82-.45.5-.18.97-.25,1.4-.21.43.04.82.16,1.16.37.34.21.64.48.9.81.25.34.45.71.6,1.12.13.35.21.73.26,1.13.04.08.11.17.2.28s.2.21.32.31c.12.09.25.16.38.21s.26.05.37.01c.13-.05.21-.18.22-.38.01-.21,0-.47-.06-.78-.05-.31-.16-.86-.33-1.64-.16-.83-.25-1.45-.28-1.86-.03-.41-.01-.79.06-1.15s.2-.67.38-.94c.19-.27.47-.47.83-.61.35-.13.68-.17.99-.13.3.04.59.14.85.29.26.16.51.36.73.61.22.25.42.52.61.82.18.3.35.61.49.93.14.32.27.63.38.93.17.47.29.92.35,1.34.06.42.06.8-.01,1.15-.07.34-.21.64-.41.9-.21.25-.49.45-.85.58-.19.07-.4.11-.62.11s-.44-.03-.65-.08c-.22-.06-.43-.14-.64-.24-.21-.1-.4-.22-.58-.35-.02.16-.04.32-.06.48-.03.16-.07.31-.12.45-.06.14-.14.27-.24.38-.1.11-.24.2-.41.26-.18.07-.37.07-.57.02-.19-.05-.38-.14-.56-.26-.18-.12-.35-.25-.49-.4s-.26-.29-.35-.41c-.09.52-.28.96-.58,1.32s-.74.64-1.31.85c-.47.17-.91.23-1.34.17-.43-.05-.82-.19-1.17-.4-.35-.21-.66-.49-.93-.84-.27-.34-.47-.72-.62-1.12-.13-.35-.21-.72-.24-1.11-.03-.39,0-.77.08-1.15-.3-.34-.55-.69-.75-1.05-.2-.35-.36-.7-.48-1.04l1.03-.22.17.52ZM10.73,314.43c-.12-.32-.27-.57-.45-.75-.19-.18-.4-.31-.65-.39-.25-.07-.52-.09-.81-.06-.29.04-.61.11-.94.23-.25.09-.48.22-.69.37-.21.16-.37.34-.49.55-.12.21-.19.45-.22.71-.02.26.02.55.13.86.14.37.31.66.52.86.21.2.44.34.69.42.25.08.51.1.78.07.27-.03.53-.09.78-.18.26-.09.49-.22.71-.39s.39-.37.53-.6c.14-.23.22-.49.25-.78s-.01-.6-.13-.93ZM14.53,315.07c.33.14.65.23.95.26.3.04.56,0,.8-.08.31-.11.54-.27.7-.48s.25-.44.29-.69c.04-.25.04-.52-.01-.8-.05-.28-.12-.55-.22-.81-.05-.14-.12-.31-.22-.51-.09-.2-.2-.4-.32-.6-.12-.2-.25-.4-.4-.58-.15-.19-.3-.35-.47-.48-.16-.13-.34-.22-.52-.28s-.36-.05-.54.02c-.18.07-.32.18-.42.34-.1.16-.17.35-.21.57-.04.22-.06.47-.06.75,0,.28.06.74.16,1.38.08.42.15.75.21.98.06.23.11.43.16.61.05.17.08.3.1.39Z"/>
        <path class="cls-1" d="M3.61,309.13c.13-.08.3-.15.52-.24.22-.08.52-.17.89-.28-.59-.27-1.11-.64-1.55-1.1-.44-.46-.73-.99-.9-1.58-.02-.07-.03-.14-.05-.22-.01-.08-.02-.14-.02-.18l1.37-.1c0,.17.04.37.1.62.2.7.51,1.23.96,1.61.44.37.84.58,1.18.63l5.95-1.67.35,1.24-7.33,2.05c-.67.2-1.06.33-1.16.38l-.33-1.17Z"/>
        <path class="cls-1" d="M8,295.49c.57.29,1.07.67,1.49,1.16.42.48.71,1.17.87,2.04.21,1.13-.02,2.12-.69,2.97-.68.84-1.75,1.4-3.22,1.68-1.28.24-2.38.12-3.31-.35-.92-.47-1.5-1.32-1.73-2.53-.19-1.02-.06-1.88.39-2.58.45-.7,1.17-1.18,2.17-1.45.37-.1.77-.19,1.19-.25l1.1,5.82c.96-.18,1.74-.56,2.35-1.12.61-.57.84-1.23.69-1.99-.1-.55-.31-1.01-.62-1.38-.31-.37-.72-.69-1.24-.95l.57-1.05ZM2.41,300.29c.14.75.51,1.28,1.1,1.57.59.29,1.21.38,1.87.29l-.85-4.51c-.69.15-1.25.44-1.69.85-.44.42-.58,1.02-.44,1.8Z"/>
        <path class="cls-1" d="M7.21,293.36c.37-.4.66-.8.85-1.21.19-.41.27-.91.22-1.5-.04-.6-.21-1.08-.49-1.45-.28-.37-.64-.53-1.08-.5-.3.02-.56.14-.76.35s-.39.62-.56,1.23c-.06.23-.17.68-.35,1.35-.12.63-.35,1.22-.7,1.79-.35.57-.88.88-1.6.93-.68.05-1.26-.2-1.73-.75-.47-.55-.73-1.29-.8-2.21-.03-.33-.03-.63-.02-.91.01-.28.05-.55.12-.8.06-.25.15-.5.26-.72.11-.23.26-.46.44-.68l.94.67c-.29.39-.5.77-.62,1.13-.12.36-.16.77-.13,1.22.04.55.18,1,.42,1.35.23.35.55.5.95.47.38-.03.67-.22.87-.58.2-.35.35-.77.45-1.24.06-.25.12-.5.18-.74.06-.25.12-.49.18-.74.22-.79.5-1.37.85-1.74.35-.37.83-.57,1.44-.62.76-.06,1.39.21,1.89.8.5.59.78,1.34.85,2.26.06.72.01,1.36-.13,1.92-.14.57-.46,1.13-.95,1.68l-.99-.78Z"/>
        <path class="cls-1" d="M6.74,285.35c.42-.36.74-.73.98-1.11s.37-.87.39-1.47c.02-.6-.09-1.1-.33-1.49-.24-.4-.58-.6-1.02-.62-.31-.01-.57.08-.8.27-.23.19-.46.57-.69,1.16-.08.22-.25.65-.5,1.3-.19.61-.48,1.18-.9,1.7-.41.53-.98.77-1.7.75-.69-.03-1.23-.34-1.63-.94-.4-.6-.58-1.36-.55-2.29.01-.33.04-.63.09-.91.05-.28.11-.54.2-.79.09-.24.21-.47.35-.69.14-.21.31-.42.51-.62l.86.78c-.33.36-.58.71-.74,1.06-.16.35-.25.74-.27,1.2-.02.56.07,1.02.26,1.39.19.37.49.56.89.58.38.01.69-.14.93-.47s.43-.72.59-1.18c.08-.24.17-.48.26-.72s.18-.48.26-.72c.31-.76.65-1.31,1.04-1.63.39-.32.89-.47,1.5-.45.76.03,1.36.36,1.79,1.01.43.64.63,1.42.59,2.34-.03.72-.14,1.35-.34,1.9-.2.55-.58,1.07-1.13,1.57l-.9-.89Z"/>
        <path class="cls-1" d="M11.96,266.28c-.41,1.32-1.14,2.19-2.17,2.61-1.03.42-2.22.42-3.56,0-1.21-.38-2.1-1.06-2.68-2.03-.58-.98-.68-2.06-.3-3.26.39-1.23,1.1-2.04,2.15-2.45,1.05-.41,2.19-.41,3.44-.02,1.19.37,2.09,1.04,2.72,2.01.62.97.76,2.02.4,3.15ZM10.95,266.02c.14-.43.15-.84.05-1.23-.1-.39-.37-.82-.8-1.31-.43-.49-1.1-.87-2.01-1.16-.8-.25-1.59-.26-2.38-.02-.79.23-1.32.78-1.59,1.62-.27.85-.16,1.6.32,2.26.48.66,1.22,1.14,2.23,1.46.86.27,1.58.32,2.17.14.58-.18,1.03-.41,1.33-.68.31-.27.53-.63.67-1.08Z"/>
        <path class="cls-1" d="M5.89,256.85l-.63-.28c-1.03-.46-1.7-1.05-2-1.78-.3-.72-.26-1.51.11-2.36.14-.31.31-.59.52-.85.21-.26.39-.44.54-.53l.79.96c-.09.05-.24.17-.45.35-.21.18-.36.38-.46.6-.25.56-.28,1.02-.08,1.39.1.2.33.4.69.6.36.2.86.44,1.49.73l.85-1.9.94.56-.8,1.78,7.07,3.17-.53,1.18-7.07-3.17-.49,1.09-.99-.44.49-1.09Z"/>
        <path class="cls-1" d="M13.61,242.91c.16.08.41.23.73.45.03-.48.11-.96.25-1.44.13-.48.38-.95.75-1.42.23-.29.5-.52.82-.7.32-.18.71-.25,1.17-.23.15-1.26.53-2.27,1.14-3.04.26-.32.54-.56.84-.72.3-.16.61-.24.92-.24.31,0,.63.05.95.18.32.13.63.31.92.54l4.92,3.89-.8,1.01-4.82-3.81c-.24-.19-.46-.32-.69-.39-.22-.08-.44-.1-.64-.08-.2.02-.39.08-.57.19s-.33.24-.46.41c-.49.62-.81,1.35-.96,2.19.3.14.6.34.9.58l4.9,3.87-.8,1.01-4.81-3.8c-.48-.38-.91-.55-1.31-.52-.39.03-.73.22-.99.56-.22.28-.42.65-.58,1.11-.16.46-.27.9-.32,1.34l5.57,4.4-.8,1.01-6.12-4.84c-.3-.23-.59-.42-.85-.58l.75-.94Z"/>
        <path class="cls-1" d="M23,233.49c-.04-.4.04-.92.24-1.57.21-.65.55-1.26,1.03-1.83.57-.68,1.2-1.07,1.89-1.19.69-.12,1.34.08,1.96.61l3,2.54c.51.43.88.67,1.1.72s.42-.04.6-.25c.12-.14.23-.3.32-.47l.59.23c.01.2-.03.44-.14.7-.11.26-.25.49-.41.69-.19.23-.45.36-.78.4-.33.04-.72-.1-1.18-.42l-.03.04c.09.67.06,1.29-.09,1.86s-.43,1.09-.82,1.56c-.47.56-.99.88-1.56.96-.57.08-1.13-.11-1.69-.58-.59-.5-.92-1.09-.97-1.79-.06-.69.09-1.43.46-2.2.36-.78.88-1.56,1.55-2.35l-.52-.44c-.55-.47-1.03-.67-1.43-.6-.4.07-.76.29-1.08.67-.4.48-.66.99-.77,1.52-.11.53-.16.95-.15,1.25l-1.11-.05ZM28.61,231.61c-.78.95-1.26,1.84-1.44,2.67-.18.83.02,1.49.59,1.97.35.3.7.42,1.03.37s.64-.25.92-.58c.35-.42.6-.9.74-1.45.14-.55.2-.97.18-1.27l-2.02-1.7Z"/>
        <path class="cls-1" d="M29.13,226.14c-.29-.21-.61-.41-.97-.6l.7-.98c.22.1.47.24.75.42,0-.48.06-.98.2-1.49.14-.51.37-1,.7-1.46.54-.75,1.15-1.18,1.82-1.29.68-.11,1.38.09,2.11.61l5.01,3.6-.75,1.05-4.84-3.48c-.49-.35-.95-.52-1.39-.51-.44,0-.83.25-1.17.72-.27.38-.49.81-.65,1.3-.17.49-.26.96-.29,1.41l5.76,4.14-.75,1.05-6.25-4.49Z"/>
        <path class="cls-1" d="M34.22,216.81l5.1,3.14c.51.31.97.42,1.39.33.42-.09.76-.34,1.01-.75.33-.53.54-1.04.64-1.53.1-.49.11-.93.02-1.32l-5.86-3.61.68-1.1,6.54,4.03c.3.19.65.36,1.04.51l-.69,1.12c-.29-.13-.56-.26-.83-.4.04.37.02.78-.05,1.23-.07.45-.15.82-.25,1.1-.1.28-.21.52-.34.73-.5.81-1.08,1.26-1.76,1.36-.67.1-1.37-.07-2.08-.51l-5.24-3.23.68-1.1Z"/>
        <path class="cls-1" d="M38.64,209.39l-.6-.33c-.99-.54-1.6-1.19-1.85-1.94-.24-.75-.14-1.53.31-2.34.16-.3.36-.57.58-.81.23-.24.42-.41.59-.49l.71,1.02c-.09.04-.25.15-.47.31s-.39.35-.51.56c-.3.54-.36,1-.2,1.38.08.21.3.43.64.66.34.23.82.51,1.43.85l1-1.82.89.63-.94,1.71,6.78,3.73-.62,1.13-6.78-3.73-.58,1.05-.95-.52.58-1.05Z"/>
        <path class="cls-1" d="M41.96,205.59c-.14-.38-.18-.91-.14-1.58.04-.68.23-1.35.56-2.02.39-.8.91-1.33,1.55-1.61.64-.28,1.33-.24,2.05.12l3.53,1.74c.6.3,1.02.44,1.24.43.23,0,.4-.14.52-.39.08-.17.15-.34.2-.53l.63.08c.06.19.07.43.03.71-.04.28-.12.54-.24.77-.13.27-.35.46-.66.58-.31.12-.73.08-1.25-.12l-.02.04c.25.63.37,1.24.36,1.83-.01.59-.15,1.16-.42,1.71-.32.65-.75,1.09-1.29,1.3-.53.21-1.13.16-1.77-.16-.69-.34-1.15-.84-1.38-1.5-.22-.66-.25-1.41-.09-2.25.17-.84.48-1.73.94-2.66l-.62-.3c-.65-.32-1.16-.4-1.53-.24-.37.16-.67.46-.88.91-.28.56-.41,1.12-.39,1.66.02.54.07.96.16,1.24l-1.08.22ZM46.95,202.41c-.53,1.11-.78,2.09-.75,2.93.02.85.37,1.44,1.04,1.77.42.21.78.24,1.08.11.31-.13.56-.39.75-.78.24-.49.36-1.02.37-1.58,0-.57-.04-.99-.13-1.28l-2.37-1.17Z"/>
        <path class="cls-1" d="M54.61,193.16c.32.49.5,1.04.55,1.66.05.61-.08,1.28-.39,2-.48,1.12-1.26,1.84-2.33,2.17-1.07.32-2.22.22-3.46-.31-1.2-.52-2.05-1.28-2.54-2.29-.49-1.01-.5-2.07-.01-3.21.28-.66.61-1.16.99-1.51.38-.35.8-.61,1.27-.76l.36,1.07c-.45.15-.81.35-1.08.59-.27.24-.49.56-.67.97-.33.78-.3,1.51.11,2.2.4.69,1.07,1.24,1.99,1.63.95.41,1.86.53,2.73.35.87-.17,1.46-.62,1.77-1.33.26-.61.36-1.11.3-1.49s-.23-.79-.48-1.23l.9-.52Z"/>
        <path class="cls-1" d="M48.12,189.49l.46-1.19-2.08-.81.47-1.2,2.08.81.78-2,.99.54-.73,1.88,4.76,1.85c.47.18.88.25,1.23.21.34-.04.58-.23.71-.56.07-.18.13-.41.18-.7s.08-.48.09-.58l1.08.31c-.02.11-.07.34-.16.68-.08.34-.16.61-.24.8-.25.65-.61,1.08-1.06,1.32-.46.23-1.12.18-1.98-.15l-5.07-1.97-.46,1.19-1.04-.4Z"/>
        <path class="cls-1" d="M50.91,182.19l5.66,1.97c.56.19,1.04.2,1.43.02.39-.18.67-.49.82-.95.2-.59.3-1.13.3-1.64,0-.5-.09-.94-.26-1.29l-6.5-2.26.42-1.22,7.25,2.52c.33.12.71.21,1.13.27l-.43,1.24c-.31-.06-.61-.13-.9-.21.11.35.19.76.22,1.21.03.46.03.83,0,1.12-.04.29-.09.56-.17.79-.31.9-.79,1.47-1.42,1.71-.63.24-1.35.23-2.14-.05l-5.81-2.02.42-1.22Z"/>
        <path class="cls-1" d="M53.93,173.17c.15,0,.33.03.57.09.23.05.53.13.89.25-.35-.55-.59-1.14-.7-1.76-.11-.63-.08-1.23.1-1.81.02-.07.05-.14.08-.21.03-.07.06-.12.08-.16l1.21.67c-.09.14-.17.33-.25.57-.21.69-.24,1.32-.07,1.87.17.55.39.94.65,1.17l5.9,1.83-.38,1.23-7.27-2.26c-.67-.2-1.07-.3-1.18-.31l.36-1.16Z"/>
        <path class="cls-1" d="M52.62,167.61c-.19-.05-.34-.17-.46-.35s-.14-.38-.08-.61c.06-.22.19-.37.39-.46.19-.09.39-.11.58-.05.22.06.37.19.48.37.1.19.12.38.07.57-.06.2-.18.35-.37.46-.19.11-.39.13-.6.07ZM55.4,168.27l.36-1.24,8.49,2.44-.36,1.24-8.48-2.44Z"/>
        <path class="cls-1" d="M57.59,164.77c-.34-.09-.72-.16-1.12-.21l.3-1.16c.25.01.53.05.85.12-.18-.45-.29-.93-.35-1.46s-.01-1.07.13-1.61c.23-.89.64-1.51,1.24-1.86.59-.35,1.32-.41,2.19-.19l5.97,1.55-.32,1.25-5.77-1.5c-.58-.15-1.07-.14-1.48.02-.41.17-.68.53-.83,1.09-.12.45-.16.93-.14,1.45.02.52.1.99.24,1.41l6.87,1.79-.33,1.25-7.45-1.94Z"/>
        <path class="cls-1" d="M61.47,148.44c-.05.21-.08.41-.1.6-.01.19-.01.37,0,.56.23-.09.49-.15.77-.18s.59-.01.94.06c.52.12.95.31,1.29.58.34.27.6.58.78.94.18.36.28.75.32,1.17.03.42,0,.84-.1,1.27-.08.36-.21.73-.39,1.09,0,.09,0,.2.01.35.02.14.05.29.1.43.05.14.12.27.2.38.08.11.19.18.31.21.14.03.27-.04.39-.21.12-.17.24-.4.37-.69.12-.29.33-.81.61-1.56.32-.78.57-1.36.77-1.72.2-.36.42-.67.67-.94.25-.26.53-.46.83-.58s.65-.15,1.03-.06c.37.08.67.22.9.42.23.2.42.43.56.71.14.27.23.58.28.91.05.33.07.67.07,1.02,0,.35-.04.7-.09,1.05-.05.35-.11.68-.18.99-.11.49-.25.93-.43,1.32-.18.39-.39.71-.63.96-.24.25-.52.43-.83.53s-.66.11-1.03.03c-.2-.05-.39-.13-.58-.24-.18-.12-.35-.26-.5-.42-.15-.17-.29-.35-.41-.54-.12-.2-.22-.4-.3-.61-.1.13-.21.25-.31.37-.11.12-.22.22-.35.31-.12.09-.26.15-.4.19-.15.04-.31.04-.48,0-.19-.04-.35-.14-.49-.29-.13-.15-.25-.32-.34-.52s-.16-.4-.2-.6c-.04-.21-.07-.38-.07-.54-.36.39-.76.65-1.21.79s-.97.14-1.56,0c-.48-.11-.89-.3-1.22-.58-.33-.28-.59-.6-.77-.97-.18-.37-.29-.77-.33-1.2-.04-.43-.01-.86.08-1.28.08-.37.22-.72.4-1.07.18-.34.41-.65.69-.93-.07-.45-.09-.88-.06-1.28.02-.41.08-.78.15-1.13l.99.37-.14.53ZM64.58,153.13c.07-.33.08-.62.03-.88s-.17-.48-.34-.67c-.17-.19-.39-.36-.65-.49-.27-.13-.57-.23-.92-.31-.26-.06-.52-.08-.78-.06-.26.02-.5.09-.71.2-.21.11-.4.27-.56.48-.16.21-.28.47-.35.79-.09.39-.1.72-.03,1.01.07.28.19.52.35.72.17.2.37.36.61.48s.49.21.75.27c.27.06.54.08.81.05.27-.03.53-.1.77-.22.24-.12.45-.29.63-.52.18-.22.31-.51.39-.86ZM67.42,155.72c.21.3.43.54.66.73.23.19.47.31.71.37.32.07.61.06.85-.03.24-.09.45-.23.62-.42.17-.19.31-.42.42-.68.11-.26.19-.53.25-.8.03-.15.06-.33.09-.54.03-.21.05-.44.06-.67,0-.24,0-.47-.02-.71-.02-.24-.07-.46-.13-.65-.07-.2-.16-.37-.28-.51-.12-.14-.28-.23-.47-.28-.19-.04-.36-.02-.54.06-.17.08-.34.2-.49.37-.15.16-.31.36-.45.6-.15.24-.35.65-.61,1.25-.16.4-.27.71-.35.94-.08.23-.14.43-.19.6s-.09.3-.12.38Z"/>
        <path class="cls-1" d="M70.64,148.76l-.51.43c-1.05-1.14-2.14-2.04-3.28-2.7-1.14-.66-2.31-1.11-3.52-1.35-1.19-.24-2.4-.27-3.64-.09-1.23.18-2.5.61-3.8,1.29l-.37-.61c1.42-.91,2.8-1.52,4.13-1.85,1.33-.33,2.63-.37,3.89-.12,1.27.25,2.5.8,3.69,1.63,1.18.83,2.32,1.95,3.41,3.37Z"/>
      </g>
      <path class="cls-5" d="M28.74,354.79c5.85,10.44,12.05,23.36,17.32,38.64,4.56,13.21,7.45,25.4,9.33,35.98"/>
      <polyline class="cls-5" points="66.58 382.47 56.21 429.99 10.87 410.47"/>
      <g>
        <path class="cls-1" d="M150.62,463.93c-1.19-1.29-2.09-2.61-2.7-3.95-.61-1.34-.91-2.65-.92-3.93-.01-1.28.28-2.54.86-3.8.58-1.26,1.47-2.5,2.65-3.72l.49.45c-.45.57-.85,1.15-1.18,1.75-.33.59-.6,1.19-.81,1.8-.21.6-.37,1.21-.46,1.81-.1.6-.15,1.19-.14,1.78,0,1.19.23,2.41.66,3.66.43,1.25,1.11,2.5,2.04,3.76l-.48.4Z"/>
        <path class="cls-1" d="M153.27,460.04c.37.45.82.85,1.37,1.2.55.35,1.18.55,1.91.58.84.04,1.52-.12,2.04-.49.52-.37.8-.92.83-1.65.04-.72-.17-1.26-.61-1.63-.44-.37-1.11-.75-2.01-1.13l-.69-.33c-.97-.4-1.77-.9-2.4-1.52-.63-.62-.92-1.41-.87-2.38.05-.99.46-1.75,1.25-2.29s1.76-.79,2.9-.73c.88.04,1.61.21,2.19.5.57.29,1.1.7,1.56,1.22l-.85.88c-.34-.34-.74-.66-1.19-.95-.46-.29-1.04-.45-1.73-.48-.75-.04-1.38.11-1.89.44-.52.33-.79.77-.81,1.33-.03.68.22,1.23.76,1.64.54.41,1.1.74,1.67.99l1.18.56c1.22.53,2.05,1.07,2.46,1.63s.6,1.27.56,2.14c-.06,1.16-.51,2.04-1.35,2.63-.85.59-1.87.86-3.06.8-.48-.02-.93-.08-1.33-.17-.4-.09-.78-.21-1.13-.38-.35-.16-.68-.37-.98-.61-.3-.24-.6-.53-.88-.87l1.11-.94Z"/>
        <path class="cls-1" d="M164.5,454.53c0,.24.02.45.02.65.6-.21,1.1-.35,1.51-.42s.81-.08,1.21-.03c1.11.13,1.91.64,2.42,1.52.5.88.67,2.01.5,3.38-.16,1.3-.62,2.35-1.38,3.14s-1.69,1.12-2.77,1c-.61-.07-1.1-.2-1.48-.39-.38-.19-.68-.39-.89-.61l-.51,4.23-1.28-.16,1.35-11.15c.03-.37.06-.8.08-1.3l1.23.15ZM166.82,455.79c-.4-.05-.79-.05-1.16,0-.37.05-.78.16-1.22.34l-.67,5.51c.2.24.48.45.86.63.38.18.83.31,1.36.37.8.1,1.44-.16,1.92-.76.48-.61.78-1.42.91-2.45.13-1.08.02-1.93-.34-2.56-.36-.63-.91-.99-1.66-1.08Z"/>
        <path class="cls-1" d="M178.81,464.18c-.48.43-1.02.75-1.62.95-.6.21-1.35.22-2.22.05-1.13-.22-1.97-.8-2.5-1.74-.53-.94-.66-2.14-.37-3.61.25-1.28.77-2.26,1.55-2.94s1.78-.91,2.99-.67c1.02.2,1.78.64,2.26,1.32.48.68.67,1.53.54,2.55-.04.39-.11.79-.21,1.2l-5.81-1.13c-.19.96-.13,1.82.18,2.6.31.77.84,1.23,1.6,1.38.55.11,1.05.09,1.51-.06.46-.15.9-.42,1.34-.8l.77.92ZM176.42,457.22c-.75-.15-1.38,0-1.86.44-.49.44-.81.98-.96,1.63l4.5.88c.11-.7.06-1.32-.17-1.88-.22-.56-.73-.92-1.52-1.07Z"/>
        <path class="cls-1" d="M187.45,466.59c-.44.38-.96.64-1.56.78-.6.13-1.28.1-2.03-.11-1.18-.32-2-.98-2.48-2-.47-1.01-.53-2.17-.18-3.47.34-1.26.98-2.21,1.9-2.84.93-.63,1.98-.79,3.17-.47.69.19,1.23.44,1.64.77.4.32.71.71.94,1.15l-1.01.51c-.22-.43-.46-.76-.74-.99-.28-.23-.63-.41-1.05-.52-.82-.22-1.54-.08-2.16.42-.63.5-1.07,1.23-1.33,2.2-.27,1-.26,1.92.04,2.75.29.84.82,1.36,1.57,1.56.64.17,1.15.2,1.52.08.37-.12.75-.33,1.15-.65l.64.82Z"/>
        <path class="cls-1" d="M191.57,460.21l1.23.4-2.75,8.39-1.23-.4,2.75-8.39ZM192.33,457.45c.06-.19.18-.34.37-.45.19-.11.39-.13.61-.06.22.07.37.21.45.4.08.2.09.39.03.58-.07.21-.2.37-.39.46-.19.09-.38.11-.58.05-.2-.06-.35-.19-.45-.38-.1-.19-.12-.39-.05-.6Z"/>
        <path class="cls-1" d="M195.76,461.64l.24-.64c.39-1.06.94-1.76,1.64-2.11.7-.35,1.49-.36,2.36-.04.32.12.61.27.88.46.27.19.46.36.57.51l-.91.85c-.06-.08-.18-.23-.38-.42-.2-.2-.41-.34-.62-.42-.58-.21-1.04-.21-1.39,0-.19.11-.38.36-.55.73s-.38.88-.63,1.54l1.95.72-.49.98-1.83-.68-2.69,7.26-1.21-.45,2.69-7.26-1.12-.42.38-1.02,1.12.42Z"/>
        <path class="cls-1" d="M200.66,463.54l1.19.5-3.39,8.15-1.19-.5,3.39-8.15ZM201.64,460.85c.08-.18.21-.32.4-.42.19-.1.4-.1.62,0,.21.09.35.23.42.44.06.21.06.4-.02.58-.09.21-.23.35-.43.43-.2.08-.39.08-.58,0-.19-.08-.33-.22-.42-.42-.09-.2-.08-.4,0-.61Z"/>
        <path class="cls-1" d="M207.56,474.8c-.5.3-1.06.45-1.68.48-.61.02-1.27-.14-1.98-.48-1.1-.53-1.79-1.33-2.07-2.42-.28-1.08-.13-2.23.45-3.44.57-1.18,1.36-1.99,2.39-2.45,1.03-.45,2.09-.41,3.2.12.64.31,1.13.66,1.47,1.05.33.39.57.83.71,1.3l-1.09.32c-.14-.46-.32-.83-.55-1.11-.23-.28-.54-.52-.94-.71-.76-.37-1.5-.36-2.2.02-.71.38-1.28,1.02-1.71,1.92-.45.93-.6,1.84-.47,2.71s.56,1.48,1.26,1.82c.6.29,1.09.41,1.47.36.38-.05.8-.19,1.25-.43l.48.92Z"/>
        <path class="cls-1" d="M212.32,470.22c.39-.11.92-.12,1.59-.03.67.09,1.33.32,1.98.7.77.45,1.27,1,1.5,1.66.24.66.15,1.34-.26,2.04l-1.98,3.4c-.34.58-.51.98-.51,1.21,0,.23.11.41.35.55.16.09.33.17.52.23l-.12.62c-.2.05-.44.04-.71-.02-.28-.06-.53-.16-.76-.29-.26-.15-.44-.38-.53-.7-.1-.32-.03-.73.21-1.24l-.04-.02c-.64.21-1.26.28-1.85.23s-1.15-.23-1.68-.54c-.63-.37-1.04-.82-1.21-1.37-.18-.55-.08-1.13.28-1.76.39-.67.92-1.09,1.59-1.27.67-.18,1.42-.16,2.25.07.83.22,1.69.59,2.59,1.12l.35-.59c.36-.63.48-1.13.34-1.51-.13-.38-.42-.7-.84-.95-.54-.32-1.08-.48-1.63-.5-.54-.02-.96,0-1.25.07l-.15-1.1ZM215.14,475.41c-1.07-.6-2.03-.92-2.88-.95-.85-.03-1.46.27-1.83.92-.23.4-.29.76-.19,1.07.11.32.35.58.73.8.47.27.99.43,1.56.48.57.04.99.03,1.28-.04l1.33-2.28Z"/>
        <path class="cls-1" d="M220.47,473.81l1.06.71,1.24-1.85,1.07.72-1.24,1.85,1.79,1.2-.74.85-1.67-1.12-2.84,4.24c-.28.42-.44.8-.47,1.15-.03.35.1.62.39.82.16.11.37.22.64.33.27.11.45.18.55.21l-.54.98c-.1-.04-.31-.14-.63-.3-.32-.16-.56-.29-.73-.41-.58-.39-.92-.83-1.05-1.33-.13-.5.07-1.13.58-1.9l3.03-4.51-1.06-.71.62-.93Z"/>
        <path class="cls-1" d="M226.31,477.82l1.04.76-5.22,7.12-1.04-.76,5.22-7.12ZM227.89,475.44c.12-.16.28-.26.49-.31.21-.05.41,0,.6.13.19.14.29.31.3.52.02.21-.03.4-.15.56-.13.18-.3.29-.51.32s-.4-.01-.56-.13c-.17-.12-.27-.29-.31-.5-.04-.21.01-.41.14-.59Z"/>
        <path class="cls-1" d="M227.06,489.76c-1.07-.88-1.6-1.88-1.6-2.99,0-1.11.45-2.21,1.35-3.3.81-.97,1.77-1.54,2.89-1.71,1.12-.17,2.17.15,3.14.95.99.82,1.48,1.79,1.45,2.91-.02,1.12-.45,2.19-1.28,3.2-.79.96-1.76,1.54-2.89,1.75-1.13.21-2.15-.06-3.07-.82ZM227.68,488.92c.35.29.72.46,1.12.51.4.05.9-.03,1.51-.24.61-.21,1.22-.69,1.83-1.42.53-.64.84-1.37.92-2.19.08-.82-.22-1.51-.9-2.08-.69-.57-1.42-.75-2.21-.56-.79.2-1.52.7-2.2,1.52-.58.7-.89,1.35-.95,1.96-.05.61-.01,1.1.12,1.49.14.39.39.73.75,1.03Z"/>
        <path class="cls-1" d="M237.12,488.1c.25-.25.5-.54.74-.86l.86.84c-.13.21-.31.43-.53.68.47.07.96.21,1.44.42.49.21.93.52,1.33.91.66.64.99,1.31,1,2,0,.69-.3,1.35-.92,1.99l-4.32,4.41-.92-.9,4.17-4.26c.42-.43.66-.86.72-1.3s-.12-.86-.53-1.26c-.33-.32-.73-.61-1.19-.84-.46-.24-.91-.4-1.35-.49l-4.96,5.07-.92-.9,5.38-5.5Z"/>
        <path class="cls-1" d="M237.17,500.91l-.04-.67c1.54-.16,2.92-.5,4.12-1.02,1.21-.52,2.27-1.19,3.18-2.02.9-.81,1.65-1.77,2.24-2.87.59-1.1,1-2.37,1.23-3.82l.71.06c-.12,1.68-.44,3.15-.97,4.42-.53,1.27-1.27,2.33-2.22,3.19-.96.87-2.13,1.53-3.5,1.99s-2.95.7-4.74.73Z"/>
      </g>
      <path class="cls-5" d="M76.13,471.04c-.12,16.06,3.86,27.79,6.65,34.34,10.04,23.56,34.24,49.47,61.44,48.39,6.19-.25,11.1-1.83,13.87-2.89"/>
      <polyline class="cls-5" points="134.21 579 157.84 551.4 124.06 534.21"/>
      <path class="cls-6" d="M223.28,85.64s-74.13,49.3-52.95,187.88"/>
      <path class="cls-6" d="M177.01,310.51s9.9,30.15-32.21,72.19c0,0-33.04,28.54-33.58,47.28"/>
      <path class="cls-6" d="M335.88,100.96s17.32,46.64,17.32,91.94"/>
      <path class="cls-6" d="M355.2,226.37s11.33,52.32,48.63,95.37"/>
      <path class="cls-6" d="M413.81,412.48c-4.08,7.44-16.81,15.58-49.17,21.06-74.07,12.53-110.68,31.09-80.38,59.12,30.3,28.03,40.96,32.02,40.96,32.02"/>
      <path class="cls-6" d="M178.65,315.49c3.34,11.22,9.51,27.75,21.32,45.3,8.13,12.08,14.94,22.21,25.32,27.98,30.93,17.21,75.72-14.12,79.71-16.99"/>
      <polyline class="cls-5" points="101.54 413.38 109.6 434.48 129.02 421.13"/>
      <polyline class="cls-5" points="304.97 388.91 311.39 367.25 287.85 366.05"/>
      <polyline class="cls-5" points="300.66 523.35 323.18 525.17 319.5 501.9"/>
      <g>
        <path class="cls-7" d="M210.11,601.88l-4.25-15.34h1.23c1.03,3.68,3.35,12.16,3.7,13.96h.02c.29-1.42,2.8-9.9,3.88-13.96h1.31c1.01,3.75,3.46,12.75,3.7,13.94h.02c.48-2.17,3.05-10.28,4.1-13.94h1.21l-4.69,15.34h-1.36c-1.01-3.62-3.4-12.49-3.66-13.8h-.02c-.39,1.99-2.76,9.99-3.86,13.8h-1.34Z"/>
        <path class="cls-7" d="M236.71,594.34h-7.82v6.44h8.57l-.18,1.1h-9.58v-15.34h9.4v1.1h-8.22v5.61h7.82v1.1Z"/>
        <path class="cls-7" d="M240.48,586.54h5.35c2.94,0,4.51,1.56,4.51,3.77,0,1.82-1.1,3-2.37,3.35,1.1.31,2.91,1.38,2.91,3.79,0,3.07-2.3,4.43-4.97,4.43h-5.43v-15.34ZM245.43,593.13c2.65,0,3.66-.99,3.66-2.76,0-1.51-1.05-2.74-3.2-2.74h-4.25v5.5h3.79ZM241.64,600.78h4.32c2.02,0,3.7-1.01,3.7-3.26,0-1.95-1.25-3.29-4.34-3.29h-3.68v6.55Z"/>
        <path class="cls-7" d="M259.56,598.85c.37,1.42,1.38,2.28,3.11,2.28,1.95,0,2.74-.9,2.74-2.12s-.53-1.86-2.98-2.45c-2.83-.68-3.53-1.53-3.53-2.98s1.14-2.91,3.62-2.91,3.66,1.51,3.83,3.07h-1.1c-.2-.92-.92-2.06-2.78-2.06s-2.45.94-2.45,1.82c0,1.01.53,1.51,2.7,2.04,3.09.75,3.86,1.75,3.86,3.4,0,1.99-1.62,3.22-3.92,3.22-2.5,0-3.9-1.31-4.21-3.29h1.12Z"/>
        <path class="cls-7" d="M269.29,585.73h1.1v2.12h-1.1v-2.12ZM269.29,590.92h1.1v10.96h-1.1v-10.96Z"/>
        <path class="cls-7" d="M272.34,590.92h2.04v-3.42h1.1v3.42h2.61v1.03h-2.61v7.12c0,1.23.26,1.93,1.31,1.93.33,0,.79-.02,1.14-.13v.96c-.37.15-.9.2-1.36.2-1.4,0-2.19-.7-2.19-2.45v-7.62h-2.04v-1.03Z"/>
        <path class="cls-7" d="M280.55,596.53c.02,2.83,1.45,4.58,3.55,4.58s2.76-1.16,3.16-2.06h1.12c-.46,1.45-1.62,3.09-4.32,3.09-3.33,0-4.62-2.87-4.62-5.65,0-3.13,1.56-5.83,4.75-5.83,3.37,0,4.45,2.91,4.45,4.97,0,.31,0,.61-.02.9h-8.06ZM287.5,595.57c-.02-2.17-1.21-3.88-3.35-3.88-2.26,0-3.29,1.58-3.53,3.88h6.88Z"/>
        <path class="cls-7" d="M305.46,585.73v12.99c0,1.05,0,2.06.02,3.16h-1.05c-.04-.26-.07-1.29-.07-1.84-.55,1.34-1.77,2.1-3.68,2.1-2.85,0-4.56-2.32-4.56-5.61s1.86-5.87,4.84-5.87c2.19,0,3.07.94,3.4,1.64v-6.57h1.1ZM297.29,596.49c0,3,1.56,4.62,3.44,4.62,2.89,0,3.68-1.99,3.68-4.97,0-2.83-.68-4.45-3.48-4.45-2.17,0-3.64,1.73-3.64,4.8Z"/>
        <path class="cls-7" d="M309.3,596.53c.02,2.83,1.45,4.58,3.55,4.58s2.76-1.16,3.16-2.06h1.12c-.46,1.45-1.62,3.09-4.32,3.09-3.33,0-4.62-2.87-4.62-5.65,0-3.13,1.56-5.83,4.75-5.83,3.37,0,4.45,2.91,4.45,4.97,0,.31,0,.61-.02.9h-8.06ZM316.24,595.57c-.02-2.17-1.21-3.88-3.35-3.88-2.26,0-3.29,1.58-3.53,3.88h6.88Z"/>
        <path class="cls-7" d="M320.06,598.85c.37,1.42,1.38,2.28,3.11,2.28,1.95,0,2.74-.9,2.74-2.12s-.53-1.86-2.98-2.45c-2.83-.68-3.53-1.53-3.53-2.98s1.14-2.91,3.62-2.91,3.66,1.51,3.83,3.07h-1.1c-.2-.92-.92-2.06-2.78-2.06s-2.45.94-2.45,1.82c0,1.01.53,1.51,2.7,2.04,3.09.75,3.86,1.75,3.86,3.4,0,1.99-1.62,3.22-3.92,3.22-2.5,0-3.9-1.31-4.21-3.29h1.12Z"/>
        <path class="cls-7" d="M329.78,585.73h1.1v2.12h-1.1v-2.12ZM329.78,590.92h1.1v10.96h-1.1v-10.96Z"/>
        <path class="cls-7" d="M342.84,601.13c0,3.51-1.56,5.35-4.73,5.35-2.85,0-4.03-1.6-4.29-3.26h1.12c.39,1.51,1.64,2.23,3.22,2.23,2.85,0,3.64-1.84,3.64-4.62v-1.14c-.59,1.42-1.67,2.19-3.66,2.19-2.56,0-4.54-2.08-4.54-5.48,0-3.68,2.1-5.74,4.69-5.74,2.23,0,3.2,1.05,3.51,1.93.02-.63.04-1.4.07-1.67h1.03c0,.39-.04,2.13-.04,3.18v7.03ZM334.76,596.36c0,2.61,1.38,4.49,3.48,4.49,2.74,0,3.57-1.82,3.57-4.67s-.88-4.49-3.51-4.49-3.55,2.17-3.55,4.67Z"/>
        <path class="cls-7" d="M346.43,593.68c0-.96,0-1.88-.02-2.76h1.07c.04.35.07,1.78.04,2.08.48-1.12,1.38-2.34,3.64-2.34,1.95,0,3.68,1.1,3.68,4.12v7.1h-1.1v-6.92c0-1.95-.81-3.22-2.72-3.22-2.61,0-3.51,2.17-3.51,4.56v5.59h-1.1v-8.2Z"/>
      </g>
      <g>
        <path class="cls-7" d="M234.66,650.66c0,4.18-2.23,8-6.97,8-4.32,0-6.84-3.48-6.84-7.89s2.43-7.89,6.99-7.89c4.21,0,6.81,3.31,6.81,7.78ZM222.12,650.7c0,3.53,1.95,6.86,5.63,6.86,3.97,0,5.63-3.24,5.63-6.88s-1.88-6.71-5.59-6.71c-3.94,0-5.67,3.26-5.67,6.73Z"/>
        <path class="cls-7" d="M237.68,650.46c0-1.84-.02-2.63-.02-2.98h1.07c.02.35.04,1.05.04,2.45.64-1.64,2.04-2.63,3.81-2.72v1.18c-2.28.15-3.81,1.73-3.81,4.34v5.7h-1.1v-7.98Z"/>
        <path class="cls-7" d="M244.78,642.29h1.1v2.12h-1.1v-2.12ZM244.78,647.48h1.1v10.96h-1.1v-10.96Z"/>
        <path class="cls-7" d="M250.56,647.48v11.72c0,2.96-.75,3.83-2.67,3.83-.04,0-.48-.02-.61-.04v-1.03c.18.02.37.02.5.02,1.56,0,1.69-.88,1.69-2.65v-11.85h1.1ZM249.47,644.41v-2.12h1.1v2.12h-1.1Z"/>
        <path class="cls-7" d="M254.16,642.29h1.1v2.12h-1.1v-2.12ZM254.16,647.48h1.1v10.96h-1.1v-10.96Z"/>
        <path class="cls-7" d="M258.84,650.24c0-.96,0-1.88-.02-2.76h1.07c.04.35.07,1.78.04,2.08.48-1.12,1.38-2.34,3.64-2.34,1.95,0,3.68,1.1,3.68,4.12v7.1h-1.1v-6.92c0-1.95-.81-3.22-2.72-3.22-2.61,0-3.51,2.17-3.51,4.56v5.59h-1.1v-8.2Z"/>
        <path class="cls-7" d="M278.37,656.36c0,.96.09,1.73.15,2.08h-1.05c-.09-.26-.15-.75-.2-1.69-.37.81-1.34,1.95-3.59,1.95-2.54,0-3.64-1.64-3.64-3.29,0-2.41,1.86-3.51,5.15-3.51h2.08v-1.12c0-1.1-.33-2.56-2.83-2.56-2.21,0-2.54,1.16-2.78,2.06h-1.1c.13-1.21.88-3.07,3.9-3.07,2.5,0,3.9,1.05,3.9,3.46v5.67ZM277.29,652.85h-2.15c-2.43,0-3.94.64-3.94,2.52,0,1.38.99,2.32,2.52,2.32,3.13,0,3.57-2.08,3.57-4.45v-.39Z"/>
        <path class="cls-7" d="M281.98,658.44v-16.15h1.1v16.15h-1.1Z"/>
        <path class="cls-7" d="M300.43,655.22c-.53,1.93-1.8,3.48-4.25,3.48-2.74,0-4.69-2.04-4.69-5.7,0-3,1.6-5.78,4.82-5.78,2.78,0,3.92,1.97,4.12,3.51h-1.12c-.33-1.27-1.16-2.48-3.02-2.48-2.32,0-3.64,1.97-3.64,4.71s1.23,4.71,3.53,4.71c1.6,0,2.56-.81,3.13-2.45h1.12Z"/>
        <path class="cls-7" d="M303.21,653.09c.02,2.83,1.45,4.58,3.55,4.58s2.76-1.16,3.16-2.06h1.12c-.46,1.45-1.62,3.09-4.32,3.09-3.33,0-4.62-2.87-4.62-5.65,0-3.13,1.56-5.83,4.75-5.83,3.37,0,4.45,2.91,4.45,4.97,0,.31,0,.61-.02.9h-8.06ZM310.16,652.13c-.02-2.17-1.21-3.88-3.35-3.88-2.26,0-3.29,1.58-3.53,3.88h6.88Z"/>
        <path class="cls-7" d="M313.97,650.46c0-1.84-.02-2.63-.02-2.98h1.07c.02.35.04,1.05.04,2.45.64-1.64,2.04-2.63,3.81-2.72v1.18c-2.28.15-3.81,1.73-3.81,4.34v5.7h-1.1v-7.98Z"/>
        <path class="cls-7" d="M328.58,656.36c0,.96.09,1.73.15,2.08h-1.05c-.09-.26-.15-.75-.2-1.69-.37.81-1.34,1.95-3.59,1.95-2.54,0-3.64-1.64-3.64-3.29,0-2.41,1.86-3.51,5.15-3.51h2.08v-1.12c0-1.1-.33-2.56-2.83-2.56-2.21,0-2.54,1.16-2.78,2.06h-1.1c.13-1.21.88-3.07,3.9-3.07,2.5,0,3.9,1.05,3.9,3.46v5.67ZM327.51,652.85h-2.15c-2.43,0-3.94.64-3.94,2.52,0,1.38.99,2.32,2.52,2.32,3.13,0,3.57-2.08,3.57-4.45v-.39Z"/>
        <path class="cls-7" d="M332.2,650.31c0-.94,0-1.97-.02-2.83h1.07c.02.37.07,1.31.04,1.95.46-1.1,1.47-2.21,3.29-2.21,1.53,0,2.74.77,3.18,2.17.55-1.14,1.64-2.17,3.57-2.17,1.69,0,3.44.96,3.44,4.01v7.21h-1.1v-7.08c0-1.47-.53-3.07-2.56-3.07s-3.09,1.71-3.09,3.83v6.31h-1.07v-7.06c0-1.6-.48-3.09-2.5-3.09-2.12,0-3.16,1.88-3.16,4.12v6.03h-1.1v-8.13Z"/>
        <path class="cls-7" d="M350.36,642.29h1.1v2.12h-1.1v-2.12ZM350.36,647.48h1.1v10.96h-1.1v-10.96Z"/>
        <path class="cls-7" d="M363.11,655.22c-.53,1.93-1.8,3.48-4.25,3.48-2.74,0-4.69-2.04-4.69-5.7,0-3,1.6-5.78,4.82-5.78,2.78,0,3.92,1.97,4.12,3.51h-1.12c-.33-1.27-1.16-2.48-3.02-2.48-2.32,0-3.64,1.97-3.64,4.71s1.23,4.71,3.53,4.71c1.6,0,2.56-.81,3.13-2.45h1.12Z"/>
        <path class="cls-7" d="M372.45,656.82v6h-1.1v-12.64c0-.9,0-1.86-.02-2.7h1.07c.04.42.04,1.07.04,1.97.68-1.32,1.88-2.24,3.86-2.24,2.59,0,4.38,2.17,4.38,5.46,0,3.94-2.1,6.03-4.75,6.03-1.93,0-2.94-.85-3.48-1.88ZM379.52,652.72c0-2.54-1.23-4.45-3.4-4.45-2.65,0-3.75,1.67-3.75,4.65s.85,4.75,3.59,4.75c2.28,0,3.55-1.93,3.55-4.95Z"/>
        <path class="cls-7" d="M383.42,650.46c0-1.84-.02-2.63-.02-2.98h1.07c.02.35.04,1.05.04,2.45.64-1.64,2.04-2.63,3.81-2.72v1.18c-2.28.15-3.81,1.73-3.81,4.34v5.7h-1.1v-7.98Z"/>
        <path class="cls-7" d="M399.4,652.94c0,3.05-1.69,5.76-4.95,5.76-2.96,0-4.8-2.43-4.8-5.74,0-3.13,1.73-5.74,4.91-5.74,2.91,0,4.84,2.28,4.84,5.72ZM390.81,652.96c0,2.61,1.4,4.71,3.73,4.71s3.7-1.95,3.7-4.71c0-2.59-1.31-4.71-3.75-4.71s-3.68,2.08-3.68,4.71Z"/>
        <path class="cls-7" d="M410.57,642.29v12.99c0,1.05,0,2.06.02,3.16h-1.05c-.04-.26-.07-1.29-.07-1.84-.55,1.34-1.77,2.1-3.68,2.1-2.85,0-4.56-2.32-4.56-5.61s1.86-5.87,4.84-5.87c2.19,0,3.07.94,3.4,1.64v-6.57h1.1ZM402.4,653.05c0,3,1.56,4.62,3.44,4.62,2.89,0,3.68-1.99,3.68-4.97,0-2.83-.68-4.45-3.48-4.45-2.17,0-3.64,1.73-3.64,4.8Z"/>
        <path class="cls-7" d="M422.36,655.24c0,1.07.02,2.78.02,3.2h-1.05c-.04-.29-.07-1.01-.07-1.91-.46,1.29-1.58,2.17-3.53,2.17-1.58,0-3.59-.61-3.59-3.97v-7.25h1.07v6.99c0,1.6.5,3.16,2.67,3.16,2.45,0,3.37-1.38,3.37-4.51v-5.63h1.1v7.76Z"/>
        <path class="cls-7" d="M434.01,655.22c-.53,1.93-1.8,3.48-4.25,3.48-2.74,0-4.69-2.04-4.69-5.7,0-3,1.6-5.78,4.82-5.78,2.78,0,3.92,1.97,4.12,3.51h-1.12c-.33-1.27-1.16-2.48-3.02-2.48-2.32,0-3.64,1.97-3.64,4.71s1.23,4.71,3.53,4.71c1.6,0,2.56-.81,3.13-2.45h1.12Z"/>
        <path class="cls-7" d="M434.91,647.48h2.04v-3.42h1.1v3.42h2.61v1.03h-2.61v7.12c0,1.23.26,1.93,1.31,1.93.33,0,.79-.02,1.14-.13v.96c-.37.15-.9.2-1.36.2-1.4,0-2.19-.7-2.19-2.45v-7.62h-2.04v-1.03Z"/>
        <path class="cls-7" d="M442.89,655.41c.37,1.42,1.38,2.28,3.11,2.28,1.95,0,2.74-.9,2.74-2.12s-.53-1.86-2.98-2.45c-2.83-.68-3.53-1.53-3.53-2.98s1.14-2.91,3.62-2.91,3.66,1.51,3.83,3.07h-1.1c-.2-.92-.92-2.06-2.78-2.06s-2.45.94-2.45,1.82c0,1.01.53,1.51,2.7,2.04,3.09.75,3.86,1.75,3.86,3.4,0,1.99-1.62,3.22-3.92,3.22-2.5,0-3.9-1.31-4.21-3.29h1.12Z"/>
      </g>
    </g>
  </g>
</svg>